<?xml version="1.0" encoding="UTF-8"?>
<svg width="94px" height="38px" viewBox="0 0 94 38" version="1.1" xmlns="http://www.w3.org/2000/svg" xmlns:xlink="http://www.w3.org/1999/xlink">
    <!-- Generator: Sketch 57.1 (83088) - https://sketch.com -->
    <title>Group 5</title>
    <desc>Created with Sketch.</desc>
    <g id="QUALIFIED-CARRIERS--WEB-" stroke="none" stroke-width="1" fill="none" fill-rule="evenodd">
        <g id="MY-CARRIER-LIST" transform="translate(-1145.000000, -489.000000)">
            <g id="Group-3" transform="translate(147.000000, 403.000000)">
                <g id="Group-5" transform="translate(998.000000, 86.000000)">
                    <text id="Certified-by:" font-family="ArialMT, Arial" font-size="7" font-weight="normal" fill="#313131">
                        <tspan x="1" y="6">Certified by:</tspan>
                    </text>
                    <g id="QC/Logo-Copy-2" transform="translate(0.000000, 10.000000)" fill="#1F229B" fill-opacity="0.935615166">
                        <path d="M0.000742388044,13.8514632 C0.0854266792,5.71924626 7.10382302,-0.751960054 15.4251689,0.0706215398 C21.880489,0.707986086 27.1348769,5.8589019 27.8990164,12.3008895 C28.374437,16.3097986 27.1403244,20.0166157 24.8474105,22.8270615 C24.578996,23.1554008 24.0793092,23.1658007 23.7791999,22.8661849 L23.7791999,22.8661849 L21.0772263,20.164195 C20.82664,19.9136073 20.7815741,19.5114783 20.9945229,19.2282052 C22.087495,17.7702399 22.7392174,15.9621452 22.7392174,13.9995378 C22.7392174,9.06107684 18.6406958,5.07891032 13.6596748,5.26808923 C9.16150273,5.43844929 5.43886052,9.16111386 5.26800625,13.6598081 C5.07882848,18.6408591 9.06097108,22.7384149 14.0003928,22.7384149 C14.8249504,22.7384149 15.6202894,22.619559 16.3760101,22.4041328 C16.63452,22.3308383 16.9118487,22.3937329 17.1020169,22.5839023 L17.1020169,22.5839023 L20.0560625,25.5369751 C20.417085,25.8989903 20.3041726,26.509117 19.8396471,26.7230576 C17.9434123,27.5961529 15.8203623,28.0596907 13.580438,27.9938248 C6.03957424,27.7719605 -0.0775039161,21.3948484 0.000742388044,13.8514632 Z M14,9.95555556 C16.1719337,9.95555556 17.9325843,11.6970255 17.9325843,13.8441983 C17.9325843,15.9923558 16.1719337,17.7333333 14,17.7333333 C11.8280663,17.7333333 10.0674157,15.9923558 10.0674157,13.8441983 C10.0674157,11.6970255 11.8280663,9.95555556 14,9.95555556 Z" id="Combined-Shape"></path>
                    </g>
                    <g id="QC/Logo-Text-Copy-2" transform="translate(31.000000, 14.000000)" fill="#5F6368">
                        <path d="M4.19706376,11.5277889 C4.57310436,11.5277889 4.9496814,11.5807418 5.32679487,11.6844862 C5.6953254,11.788771 6.03488845,11.9335809 6.34548404,12.1194563 C6.50748727,12.2161764 6.66090755,12.3220822 6.804672,12.437714 C6.94897289,12.5528054 7.08361796,12.6733003 7.2086072,12.8002791 C7.39314068,12.9931789 7.55246174,13.1898611 7.68496106,13.3914062 C7.73699521,13.4729969 7.7477239,13.5524262 7.71822,13.6307749 C7.68871611,13.7085832 7.62917187,13.7669394 7.54119661,13.8036823 L6.72152465,14.13815 C6.64052304,14.1759735 6.55040203,14.1808365 6.45008878,14.1554407 C6.35084839,14.1289643 6.27091965,14.0787131 6.21244828,14.0046871 L6.15699436,13.9474791 L6.10194277,13.8874343 C6.06439235,13.8463688 6.0279148,13.8074646 5.99090082,13.7707218 C5.90936277,13.6885908 5.82621542,13.6140245 5.74145876,13.5475632 C5.65723854,13.4805616 5.56658111,13.416802 5.47055933,13.3573651 C5.37400111,13.2984685 5.27476072,13.246056 5.17122886,13.2017484 C5.067697,13.1569006 4.96470157,13.1163754 4.8611697,13.0785519 C4.64713233,13.0115503 4.42558487,12.9785899 4.19706376,12.9785899 C3.83497045,12.9785899 3.48843374,13.0526158 3.15638077,13.2017484 C2.83076501,13.3573651 2.55450123,13.5621523 2.32544368,13.8150293 C2.08887606,14.0749307 1.90112397,14.3688732 1.76057812,14.6963166 C1.62003228,15.0307843 1.54975935,15.3841638 1.54975935,15.7559146 C1.54975935,16.1352302 1.62003228,16.4880693 1.76057812,16.8155126 C1.90112397,17.142956 2.08887606,17.4363582 2.32544368,17.6962596 C2.55450123,17.9572417 2.83076501,18.1577062 3.15638077,18.2992741 C3.47287714,18.4554311 3.82048672,18.532699 4.19706376,18.532699 C4.42558487,18.532699 4.64713233,18.4997386 4.8611697,18.432737 C4.96470157,18.3954538 5.067697,18.3543883 5.17122886,18.3100808 C5.27476072,18.2657733 5.37400111,18.2133607 5.47055933,18.1539238 C5.56658111,18.0944869 5.65723854,18.0296466 5.74145876,17.9588627 C5.82621542,17.8880787 5.90936277,17.8118914 5.99090082,17.7297604 C6.0279148,17.6924772 6.06439235,17.6535731 6.10194277,17.6130479 C6.13842032,17.5719824 6.1754343,17.5336186 6.21244828,17.4957951 C6.27091965,17.4217691 6.35084839,17.3693566 6.45008878,17.3396381 C6.55040203,17.3099197 6.64052304,17.313702 6.72152465,17.3509852 L7.54119661,17.6854529 C7.62917187,17.722736 7.68871611,17.7827133 7.71822,17.864304 C7.7477239,17.9453543 7.73699521,18.0274853 7.68496106,18.109076 C7.6109331,18.2133607 7.53583226,18.3160245 7.45804926,18.4159866 C7.38080269,18.516489 7.29765533,18.6110477 7.2086072,18.7007434 C6.96506593,18.9606448 6.67753702,19.1875857 6.34548404,19.3810259 C6.18991803,19.4772056 6.0279148,19.5631189 5.85786506,19.6371449 C5.68781531,19.7117112 5.51079192,19.7749305 5.32679487,19.827343 C4.9496814,19.9310875 4.57310436,19.9835 4.19706376,19.9835 C3.62093307,19.9835 3.07859776,19.8716505 2.56898496,19.6490323 C2.05990859,19.4258737 1.61305863,19.1205841 1.22897151,18.7337039 C0.852930901,18.3543883 0.553600434,17.9086115 0.332052974,17.395833 C0.111041948,16.8819739 9.23705556e-14,16.336235 9.23705556e-14,15.7559146 C9.23705556e-14,15.1755942 0.111041948,14.629315 0.332052974,14.1159962 C0.553600434,13.6107825 0.852930901,13.1606829 1.22897151,12.766238 C1.62003228,12.3869224 2.06688224,12.0864959 2.56898496,11.8627969 C3.07859776,11.6396384 3.62093307,11.5277889 4.19706376,11.5277889 Z M54.9356164,11.5394601 C55.2751795,11.5394601 55.5777285,11.5616139 55.8443365,11.6064618 C55.9768358,11.6286155 56.1039708,11.656713 56.2257414,11.6896734 C56.3480485,11.7237146 56.4676734,11.7588364 56.585689,11.7961195 C56.7037046,11.8409674 56.8185016,11.8912186 56.9290071,11.9463328 C57.0400491,12.0025277 57.1467995,12.0603436 57.2503314,12.1192402 C57.3238229,12.164088 57.3940959,12.2083956 57.4606137,12.2532434 C57.5271316,12.2975509 57.6011596,12.3423988 57.6821612,12.3872466 C57.7631628,12.4466835 57.8114419,12.5212499 57.8259256,12.6104052 C57.8409458,12.6995606 57.8184156,12.7854739 57.7599442,12.8670646 L57.2948555,13.5354597 C57.2353112,13.618131 57.159674,13.6667612 57.0679437,13.68081 C56.9751405,13.6959393 56.8882381,13.6770276 56.8072365,13.6256957 C56.5191711,13.4398203 56.2466624,13.2982524 55.9875645,13.2015323 C55.6410278,13.0605047 55.2682058,12.9897208 54.869635,12.9897208 C54.8031171,12.9897208 54.7306984,12.9935031 54.6534518,13.0005275 C54.5756688,13.0080922 54.496813,13.0188989 54.4152749,13.0340283 C54.2452252,13.0713114 54.0832219,13.1275063 53.9281924,13.2015323 C53.8547008,13.2388155 53.7860372,13.2793406 53.7232744,13.3241885 C53.6605115,13.3690363 53.603113,13.4209085 53.5516153,13.4803455 C53.4555935,13.5997596 53.4078509,13.7407872 53.4078509,13.9039685 C53.4078509,14.0682305 53.4668587,14.2054758 53.5848743,14.3167849 C53.7023534,14.4286344 53.8547008,14.5215721 54.0386979,14.595598 C54.1347197,14.6328812 54.2328872,14.666382 54.3321276,14.6961005 C54.4319044,14.7263593 54.5370455,14.7555374 54.6480875,14.7852558 C54.758593,14.8155146 54.8674892,14.8414507 54.9742397,14.8636045 C55.082063,14.8857582 55.1866678,14.9116943 55.2901996,14.9414128 C55.3717377,14.9560019 55.4564943,14.9754539 55.545006,14.9976077 C55.6335177,15.0197615 55.7295395,15.0381329 55.8325349,15.0532623 C55.9360668,15.0678513 56.0433537,15.0883841 56.1538592,15.1143202 C56.2649012,15.1407966 56.3754067,15.1721361 56.4864486,15.2094192 C56.54492,15.2240083 56.6060735,15.24292 56.6693728,15.2650738 C56.7315992,15.2872276 56.7922163,15.3099217 56.8517605,15.3320754 C56.9408087,15.3693586 57.0416584,15.4174484 57.1559189,15.4768853 C57.2707159,15.5368626 57.3678106,15.5957592 57.449885,15.6551961 C57.5083564,15.6930196 57.5619999,15.7313834 57.610279,15.7724489 C57.6580216,15.8129741 57.704155,15.8562009 57.7481426,15.9005084 C57.9332126,16.0863838 58.0737584,16.3025181 58.1697802,16.5478304 C58.2802857,16.8077318 58.3355384,17.1200458 58.3355384,17.4847723 C58.3355384,17.901371 58.2615105,18.2687991 58.113991,18.5886778 C57.9664715,18.9009917 57.7556527,19.1576511 57.4826075,19.358656 C57.2025887,19.5742499 56.8775094,19.7304068 56.5084424,19.8271269 C56.1168452,19.9308713 55.7000356,19.9832839 55.2569407,19.9832839 C54.8288659,19.9832839 54.4560439,19.9503234 54.1384747,19.8827815 C53.8359256,19.8309092 53.5441052,19.7455362 53.26355,19.6266624 C53.1310506,19.5742499 53.0017699,19.5169743 52.8762442,19.453755 C52.7507186,19.3899954 52.6284115,19.3213728 52.5109323,19.2473468 C52.4369044,19.202499 52.3628764,19.1560301 52.2893849,19.1073999 C52.2153569,19.0593101 52.1375739,19.0058168 52.0571087,18.9458396 C51.9755707,18.8939674 51.9272916,18.8237238 51.9122714,18.7340281 C51.8977877,18.6448727 51.9165629,18.5589593 51.9680606,18.4773687 L52.4331493,17.7857392 C52.484647,17.7041485 52.5554564,17.6555183 52.6434317,17.6409292 C52.7324798,17.6257998 52.8172364,17.6447116 52.8982381,17.6965838 C53.2308275,17.904613 53.5553704,18.0834641 53.8729396,18.2320563 C54.2935043,18.4406259 54.7478643,18.5443703 55.2349469,18.5443703 C55.4859982,18.5443703 55.7075457,18.5108695 55.8990528,18.4438679 C56.0766126,18.3919957 56.2386159,18.3098647 56.3861354,18.1985555 C56.5191711,18.0942708 56.6194844,17.9791793 56.6854658,17.8527408 C56.7519837,17.733867 56.7847062,17.6074284 56.7847062,17.4734252 C56.7847062,17.3178086 56.7337449,17.1762407 56.6296766,17.0492618 C56.5341913,16.9455174 56.401692,16.8525797 56.2311058,16.770989 C56.1501042,16.7337058 56.0615925,16.700205 55.9655707,16.6704866 C55.8695489,16.6407681 55.7627984,16.6110497 55.6447829,16.5813312 C55.5337409,16.5516128 55.4210897,16.5256766 55.3068291,16.5029826 C55.1925685,16.4808288 55.0724072,16.458675 54.947418,16.4365213 C54.8653435,16.4208516 54.7768318,16.4046415 54.6813464,16.3862701 C54.5853247,16.3678987 54.4855478,16.3468256 54.382016,16.3246718 C54.168515,16.2949534 53.9464311,16.2387585 53.71791,16.1571678 C53.4813424,16.0901662 53.2560399,15.9972285 53.0420025,15.8783547 C52.8209915,15.7665052 52.6214378,15.6216953 52.4444145,15.4433845 C52.2673911,15.2796629 52.1230902,15.0716337 52.0125847,14.8187566 C51.9090528,14.5734443 51.8575551,14.2908488 51.8575551,13.9709701 C51.8575551,13.5024992 51.9535769,13.1053526 52.145084,12.7773689 C52.3296175,12.4726197 52.5736952,12.2240653 52.8762442,12.0300848 C53.1637732,11.8593388 53.4963626,11.7334406 53.8729396,11.6507693 C54.2194763,11.5767433 54.5740595,11.5394601 54.9356164,11.5394601 Z M12.1145692,11.6623865 C12.2181011,11.6623865 12.2915926,11.706694 12.3361166,11.7958494 L16.1791336,19.5258898 C16.2231212,19.6074805 16.2284856,19.6782644 16.1952267,19.7377014 C16.1619677,19.7976786 16.0970591,19.8273971 16.0015738,19.8273971 L14.9941497,19.8273971 C14.8975915,19.8273971 14.8015697,19.7976786 14.705548,19.7377014 C14.6100626,19.6782644 14.5435447,19.6036981 14.5065308,19.5145428 L14.1744778,18.8456074 C14.1299537,18.7640167 14.0618265,18.6932327 13.9690234,18.6337958 C13.8767566,18.5738186 13.7828806,18.5446405 13.6873952,18.5446405 L10.5422796,18.5446405 C10.4462578,18.5446405 10.350236,18.5738186 10.2542142,18.6337958 C10.1581925,18.6932327 10.0916746,18.767799 10.0546606,18.8569544 L9.73387275,19.5145428 C9.68988512,19.6036981 9.6212215,19.6782644 9.52895476,19.7377014 C9.43668802,19.7976786 9.34227554,19.8273971 9.2467902,19.8273971 L8.23882972,19.8273971 C8.14280793,19.8273971 8.07843579,19.7976786 8.04517685,19.7377014 C8.01191791,19.6782644 8.01352721,19.6074805 8.0505412,19.5258898 L11.8930217,11.7958494 C11.9375458,11.706694 12.0110373,11.6623865 12.1145692,11.6623865 Z M20.5422775,11.6626026 C20.9547957,11.6626026 21.3351277,11.7290639 21.6827373,11.8630671 C22.0223004,12.0116594 22.3135843,12.2050995 22.557662,12.4428472 C22.6826513,12.5692857 22.7936932,12.7065309 22.889715,12.8556635 C22.9846639,13.0042558 23.0667384,13.1641951 23.1332563,13.3349412 C23.2657556,13.6850786 23.3322735,14.0643942 23.3322735,14.4728878 C23.3322735,15.1050804 23.1809989,15.6443353 22.8784499,16.0901122 C22.6418822,16.447274 22.3355781,16.7304098 21.9590011,16.9378986 C21.8779995,16.9822062 21.8259653,17.0443447 21.8039715,17.1221531 C21.7819777,17.1999614 21.8002165,17.276689 21.8597607,17.350715 C22.1328059,17.7230062 22.3929766,18.0742243 22.6402729,18.4043693 C22.8875693,18.7361354 23.143985,19.0873535 23.4095201,19.458564 C23.4690643,19.5412353 23.4856938,19.6222857 23.4594085,19.7044167 C23.4336596,19.7865477 23.3730425,19.8270729 23.2770207,19.8270729 L22.1585547,19.8270729 C22.062533,19.8270729 21.9627561,19.8011368 21.8597607,19.7492645 C21.7556924,19.696852 21.6746908,19.6336327 21.6162194,19.5590664 C21.4901573,19.3888607 21.3667774,19.2191954 21.2450067,19.0522317 C21.1232361,18.8841873 20.9993197,18.7150623 20.873794,18.5443162 L20.1437066,17.506872 C20.083626,17.4252813 20.0031608,17.35882 19.8990925,17.3058672 C19.7960971,17.2539949 19.6963202,17.2280588 19.6002985,17.2280588 L18.747904,17.2280588 C18.6518822,17.2280588 18.5708806,17.2615596 18.5043627,17.3280209 C18.4378448,17.3955629 18.4045859,17.4771535 18.4045859,17.5738736 L18.4045859,19.4807178 C18.4045859,19.5779782 18.3729363,19.6601092 18.3107099,19.7271108 C18.2474106,19.7935721 18.1680183,19.8270729 18.0725329,19.8270729 L17.1976082,19.8270729 C17.1015864,19.8270729 17.0200484,19.7935721 16.9540669,19.7271108 C16.8870126,19.6601092 16.8542901,19.5779782 16.8542901,19.4807178 L16.8542901,12.007877 C16.8542901,11.9116973 16.8870126,11.829026 16.9540669,11.7625647 C17.0200484,11.6955631 17.1015864,11.6626026 17.1976082,11.6626026 L20.5422775,11.6626026 Z M28.5149284,11.6626026 C28.927983,11.6626026 29.3077786,11.7290639 29.6553882,11.8630671 C29.9949513,12.0116594 30.2862352,12.2050995 30.5303129,12.4428472 C30.6553022,12.5692857 30.7663441,12.7065309 30.8623659,12.8556635 C30.9578512,13.0042558 31.0393893,13.1641951 31.1059072,13.3349412 C31.2389429,13.6850786 31.3054608,14.0643942 31.3054608,14.4728878 C31.3054608,15.1050804 31.1541863,15.6443353 30.8511008,16.0901122 C30.6150696,16.447274 30.308229,16.7304098 29.9321884,16.9378986 C29.8506504,16.9822062 29.7991527,17.0443447 29.7771588,17.1221531 C29.7546286,17.1999614 29.7734038,17.276689 29.832948,17.350715 C30.1054568,17.7230062 30.3656275,18.0742243 30.6134603,18.4043693 C30.8607566,18.7361354 31.1166359,19.0873535 31.3827074,19.458564 C31.4417152,19.5412353 31.4583447,19.6222857 31.4325958,19.7044167 C31.4063105,19.7865477 31.3456934,19.8270729 31.2496716,19.8270729 L30.1312056,19.8270729 C30.0357203,19.8270729 29.9359435,19.8011368 29.832948,19.7492645 C29.7288797,19.696852 29.6478781,19.6336327 29.5888703,19.5590664 C29.4628082,19.3888607 29.3399647,19.2191954 29.2176576,19.0522317 C29.095887,18.8841873 28.9725071,18.7150623 28.8469814,18.5443162 L28.1163575,17.506872 C28.0568133,17.4252813 27.9758117,17.35882 27.8722798,17.3058672 C27.768748,17.2539949 27.6695076,17.2280588 27.5734858,17.2280588 L26.7210913,17.2280588 C26.6245331,17.2280588 26.5435315,17.2615596 26.4770136,17.3280209 C26.4104957,17.3955629 26.3772368,17.4771535 26.3772368,17.5738736 L26.3772368,19.4807178 C26.3772368,19.5779782 26.3461236,19.6601092 26.2833608,19.7271108 C26.2205979,19.7935721 26.1412056,19.8270729 26.0451838,19.8270729 L25.1702591,19.8270729 C25.0747738,19.8270729 24.9932357,19.7935721 24.9267178,19.7271108 C24.8602,19.6601092 24.8274774,19.5779782 24.8274774,19.4807178 L24.8274774,12.007877 C24.8274774,11.9116973 24.8602,11.829026 24.9267178,11.7625647 C24.9932357,11.6955631 25.0747738,11.6626026 25.1702591,11.6626026 L28.5149284,11.6626026 Z M34.2285462,11.6729771 C34.324568,11.6729771 34.4055696,11.7070182 34.4720875,11.7740198 C34.5386054,11.8410214 34.5718643,11.9226121 34.5718643,12.0193322 L34.5718643,19.4808258 C34.5718643,19.5780862 34.5386054,19.6596769 34.4720875,19.7266785 C34.4055696,19.7936801 34.324568,19.8271809 34.2285462,19.8271809 L33.3536215,19.8271809 C33.2570633,19.8271809 33.1782074,19.7936801 33.115981,19.7266785 C33.0526817,19.6596769 33.0215685,19.5780862 33.0215685,19.4808258 L33.0215685,12.0193322 C33.0215685,11.9226121 33.0526817,11.8410214 33.115981,11.7740198 C33.1782074,11.7070182 33.2570633,11.6729771 33.3536215,11.6729771 L34.2285462,11.6729771 Z M42.1908976,11.6626026 C42.2858465,11.6626026 42.367921,11.6955631 42.4339024,11.7625647 C42.5004203,11.829026 42.5336792,11.9116973 42.5336792,12.007877 L42.5336792,12.6995066 C42.5336792,12.7962266 42.5004203,12.8778173 42.4339024,12.9453592 C42.367921,13.0118205 42.2858465,13.0453213 42.1908976,13.0453213 L38.4589226,13.0453213 C38.3623643,13.0453213 38.2813627,13.0788221 38.2148448,13.1458237 C38.148327,13.212285 38.115068,13.294416 38.115068,13.3911361 L38.115068,14.7403539 C38.115068,14.8376143 38.148327,14.919205 38.2148448,14.9862066 C38.2813627,15.0532082 38.3623643,15.086709 38.4589226,15.086709 L41.6920135,15.086709 C41.7880352,15.086709 41.8690369,15.1196695 41.9355547,15.1866711 C42.0020726,15.2536727 42.0353316,15.3358037 42.0353316,15.4319835 L42.0353316,16.1571138 C42.0353316,16.2543742 42.0020726,16.3359648 41.9355547,16.4024261 C41.8690369,16.4694277 41.7880352,16.5029285 41.6920135,16.5029285 L38.4589226,16.5029285 C38.3623643,16.5029285 38.2813627,16.5364293 38.2148448,16.6034309 C38.148327,16.6704325 38.115068,16.7525635 38.115068,16.8487433 L38.115068,18.0758453 C38.115068,18.1725654 38.148327,18.2541561 38.2148448,18.3211577 C38.2813627,18.3881593 38.3623643,18.4222004 38.4589226,18.4222004 L42.1908976,18.4222004 C42.2858465,18.4222004 42.367921,18.4551609 42.4339024,18.5221625 C42.5004203,18.5886238 42.5336792,18.6707548 42.5336792,18.7674748 L42.5336792,19.4812581 C42.5336792,19.5779782 42.5004203,19.6601092 42.4339024,19.7271108 C42.367921,19.7935721 42.2858465,19.8270729 42.1908976,19.8270729 L36.9080903,19.8270729 C36.8120686,19.8270729 36.7310669,19.7935721 36.6645491,19.7271108 C36.5980312,19.6601092 36.5647722,19.5779782 36.5647722,19.4812581 L36.5647722,12.007877 C36.5647722,11.9116973 36.5980312,11.829026 36.6645491,11.7625647 C36.7310669,11.6955631 36.8120686,11.6626026 36.9080903,11.6626026 L42.1908976,11.6626026 Z M47.816111,11.6626026 C48.2291656,11.6626026 48.6094976,11.7290639 48.9565708,11.8630671 C49.2961338,12.0116594 49.5874178,12.2050995 49.8314955,12.4428472 C49.9570212,12.5692857 50.0675267,12.7065309 50.1635485,12.8556635 C50.2590338,13.0042558 50.3405719,13.1641951 50.4070898,13.3349412 C50.5401255,13.6850786 50.606107,14.0643942 50.606107,14.4728878 C50.606107,15.1050804 50.4553689,15.6443353 50.1522834,16.0901122 C49.9162522,16.447274 49.6094116,16.7304098 49.2328346,16.9378986 C49.151833,16.9822062 49.1003352,17.0443447 49.0783414,17.1221531 C49.0558112,17.1999614 49.0740499,17.276689 49.1335942,17.350715 C49.4071758,17.7230062 49.6668101,18.0742243 49.9141064,18.4043693 C50.1614027,18.7361354 50.4183549,19.0873535 50.6833535,19.458564 C50.7428978,19.5412353 50.7595272,19.6222857 50.7337784,19.7044167 C50.7074931,19.7865477 50.646876,19.8270729 50.5508542,19.8270729 L49.4323882,19.8270729 C49.3369029,19.8270729 49.2365896,19.8011368 49.1335942,19.7492645 C49.0300623,19.696852 48.9490607,19.6336327 48.8900529,19.5590664 C48.7645272,19.3888607 48.6406108,19.2191954 48.5188402,19.0522317 C48.397606,18.8841873 48.2731532,18.7150623 48.148164,18.5443162 L47.4175401,17.506872 C47.3579959,17.4252813 47.2769943,17.35882 47.1734624,17.3058672 C47.0699305,17.2539949 46.9706902,17.2280588 46.8746684,17.2280588 L46.0217375,17.2280588 C45.9257157,17.2280588 45.8447141,17.2615596 45.7781962,17.3280209 C45.7122148,17.3955629 45.6784194,17.4771535 45.6784194,17.5738736 L45.6784194,19.4807178 C45.6784194,19.5779782 45.6473062,19.6601092 45.5850798,19.7271108 C45.5212441,19.7935721 45.4423882,19.8270729 45.3463664,19.8270729 L44.4714417,19.8270729 C44.3759563,19.8270729 44.2944183,19.7935721 44.2279004,19.7271108 C44.1613825,19.6601092 44.12866,19.5779782 44.12866,19.4807178 L44.12866,12.007877 C44.12866,11.9116973 44.1613825,11.829026 44.2279004,11.7625647 C44.2944183,11.6955631 44.3759563,11.6626026 44.4714417,11.6626026 L47.816111,11.6626026 Z M12.1145692,14.8973755 C12.0555614,14.8973755 12.0072823,14.941683 11.9708047,15.0308383 L11.09588,16.8712212 C11.058866,16.9603766 11.058866,17.0349429 11.09588,17.0943798 C11.1323576,17.1538167 11.1988754,17.1835352 11.2954337,17.1835352 L12.9342411,17.1835352 C13.0297265,17.1835352 13.0946351,17.1516554 13.127894,17.0889765 C13.1616894,17.0257572 13.1595437,16.9528119 13.1219932,16.8712212 L12.2588701,15.0308383 C12.2218561,14.941683 12.173577,14.8973755 12.1145692,14.8973755 Z M20.5422775,13.0453213 L18.747904,13.0453213 C18.6518822,13.0453213 18.5708806,13.0788221 18.5043627,13.1458237 C18.4378448,13.212285 18.4045859,13.294416 18.4045859,13.3911361 L18.4045859,15.4989851 C18.4045859,15.5957051 18.4378448,15.6772958 18.5043627,15.7442974 C18.5708806,15.811299 18.6518822,15.8447998 18.747904,15.8447998 L20.5422775,15.8447998 C20.6747768,15.8447998 20.8185413,15.8150814 20.9735709,15.7556444 C21.1355741,15.6967479 21.2723649,15.6108345 21.3834068,15.4989851 C21.4939124,15.3876759 21.5899341,15.2466484 21.6709358,15.075362 C21.7449637,14.919205 21.7819777,14.7182002 21.7819777,14.4728878 C21.7819777,14.3388846 21.7669575,14.197857 21.7379901,14.0492648 C21.7229699,13.9671338 21.7009761,13.8871641 21.6709358,13.8088154 C21.6419683,13.7315475 21.6081729,13.6548198 21.5716954,13.5807938 C21.4831837,13.4316612 21.3571216,13.305763 21.1951183,13.2014783 C21.0250686,13.0971935 20.8078126,13.0453213 20.5422775,13.0453213 Z M47.816111,13.0453213 L46.0217375,13.0453213 C45.9257157,13.0453213 45.8447141,13.0788221 45.7781962,13.1458237 C45.7122148,13.212285 45.6784194,13.294416 45.6784194,13.3911361 L45.6784194,15.4989851 C45.6784194,15.5957051 45.7122148,15.6772958 45.7781962,15.7442974 C45.8447141,15.811299 45.9257157,15.8447998 46.0217375,15.8447998 L47.816111,15.8447998 C47.9491467,15.8447998 48.0923748,15.8150814 48.2474043,15.7556444 C48.409944,15.6967479 48.5467348,15.6108345 48.6572403,15.4989851 C48.7682823,15.3876759 48.864304,15.2466484 48.9453057,15.075362 C49.0193336,14.919205 49.0558112,14.7182002 49.0558112,14.4728878 C49.0558112,14.3388846 49.0413274,14.197857 49.0118235,14.0492648 C48.9968034,13.9671338 48.9748096,13.8871641 48.9453057,13.8088154 C48.9158018,13.7315475 48.8825428,13.6548198 48.8460653,13.5807938 C48.7575536,13.4316612 48.6314915,13.305763 48.4689518,13.2014783 C48.2989021,13.0971935 48.0816461,13.0453213 47.816111,13.0453213 Z M28.5149284,13.0453213 L26.7210913,13.0453213 C26.6245331,13.0453213 26.5435315,13.0788221 26.4770136,13.1458237 C26.4104957,13.212285 26.3772368,13.294416 26.3772368,13.3911361 L26.3772368,15.4989851 C26.3772368,15.5957051 26.4104957,15.6772958 26.4770136,15.7442974 C26.5435315,15.811299 26.6245331,15.8447998 26.7210913,15.8447998 L28.5149284,15.8447998 C28.6474277,15.8447998 28.7911922,15.8150814 28.9462218,15.7556444 C29.1087614,15.6967479 29.2455522,15.6108345 29.3560577,15.4989851 C29.4670997,15.3876759 29.5631215,15.2466484 29.6441231,15.075362 C29.7181511,14.919205 29.7546286,14.7182002 29.7546286,14.4728878 C29.7546286,14.3388846 29.7401449,14.197857 29.710641,14.0492648 C29.6961572,13.9671338 29.673627,13.8871641 29.6441231,13.8088154 C29.6151556,13.7315475 29.5813602,13.6548198 29.5448827,13.5807938 C29.456371,13.4316612 29.3303089,13.305763 29.1683057,13.2014783 C28.9982559,13.0971935 28.7804635,13.0453213 28.5149284,13.0453213 Z M10.807922,0.156265043 C10.9034073,0.156265043 10.9854818,0.189765847 11.0514632,0.25622712 C11.1179811,0.323228729 11.1507036,0.405359733 11.1507036,0.501539462 L11.1507036,5.00793799 C11.1507036,5.41697201 11.2172215,5.75522206 11.3502573,6.0232285 C11.483293,6.28367024 11.6458327,6.49548177 11.8378763,6.65866311 C12.0444036,6.82292512 12.2546859,6.9304519 12.4687233,6.98232411 C12.5867389,7.01204256 12.6956351,7.03419632 12.7954119,7.04986605 C12.8951887,7.06445511 12.9890648,7.07201981 13.0781129,7.07201981 C13.2406526,7.07201981 13.4396698,7.04176102 13.675701,6.98232411 C13.9047585,6.9304519 14.1150408,6.82292512 14.3070844,6.65866311 C14.5061016,6.50304647 14.6729327,6.2906946 14.8054321,6.0232285 C14.9384678,5.75522206 15.0049857,5.41697201 15.0049857,5.00793799 L15.0049857,0.501539462 C15.0049857,0.405359733 15.0377082,0.323228729 15.1042261,0.25622712 C15.170744,0.189765847 15.252282,0.156265043 15.3483038,0.156265043 L16.2119634,0.156265043 C16.3079852,0.156265043 16.3889868,0.189765847 16.4555047,0.25622712 C16.5220226,0.323228729 16.5552815,0.405359733 16.5552815,0.501539462 L16.5552815,5.01928504 C16.5552815,5.27972678 16.5343606,5.52666012 16.494128,5.76116575 C16.4533589,5.99513105 16.3927418,6.21991064 16.3112038,6.43604486 C16.1492006,6.85210324 15.916388,7.21304739 15.6138389,7.51779664 C15.3182635,7.80795684 14.9529516,8.03868012 14.5179032,8.20942615 C14.0968021,8.37314783 13.6166932,8.4547385 13.0781129,8.4547385 C12.5389962,8.4547385 12.0631788,8.37314783 11.6495877,8.20942615 C11.2064928,8.03868012 10.8411809,7.80795684 10.5531156,7.51779664 C10.2430564,7.22061209 10.0064888,6.85966794 9.84448555,6.43604486 C9.68194589,6.01944615 9.60094427,5.54719288 9.60094427,5.01928504 L9.60094427,0.501539462 C9.60094427,0.405359733 9.63420321,0.323228729 9.70018466,0.25622712 C9.76670254,0.189765847 9.84448555,0.156265043 9.93299725,0.156265043 L10.807922,0.156265043 Z M4.15253969,2.84217094e-14 C4.70614012,2.84217094e-14 5.24096535,0.108067111 5.75808824,0.323120662 C6.26019095,0.546819582 6.69523936,0.843463801 7.06484275,1.215755 C7.44141979,1.60263526 7.73699521,2.04462974 7.95103259,2.54281912 C8.17204362,3.0485732 8.28308556,3.58728775 8.28308556,4.16058377 C8.28308556,4.39076672 8.25358166,4.6441841 8.19457387,4.91867456 C8.13556607,5.17965663 8.04651794,5.43199333 7.92850234,5.67730568 C7.78795649,5.93018272 7.62595327,6.15658331 7.44141979,6.35758814 C7.38294842,6.42458975 7.31589411,6.486188 7.24240258,6.54184256 C7.16837461,6.59749713 7.09059161,6.65531303 7.00958999,6.71474994 C6.84007668,6.8265994 6.85456041,6.88171363 7.05357762,6.88171363 L8.10552573,6.88171363 C8.20208395,6.88171363 8.28308556,6.91575477 8.34960345,6.98221604 C8.41612133,7.04975799 8.44938027,7.13134866 8.44938027,7.22806872 L8.44938027,7.97535279 C8.44938027,8.07153252 8.41612133,8.15366353 8.34960345,8.22066513 C8.28308556,8.28766674 8.20208395,8.32062721 8.10552573,8.32062721 L4.41807478,8.32062721 C3.66545714,8.32062721 3.01207988,8.20931809 2.45847945,7.9861595 C1.90487901,7.77110595 1.45051897,7.47338106 1.09647218,7.0940655 C0.742425388,6.7369037 0.47259882,6.29815123 0.288065342,5.77726775 C0.118015596,5.26448931 0.0327225063,4.72577476 0.0327225063,4.16058377 C0.0327225063,3.59539278 0.140009412,3.0561379 0.354046789,2.54281912 C0.57559425,2.04462974 0.871169675,1.60263526 1.24023663,1.215755 C1.62378732,0.836439439 2.05990859,0.539254884 2.54699114,0.323120662 C3.05660395,0.108067111 3.59142917,2.84217094e-14 4.15253969,2.84217094e-14 Z M21.2056861,0.144917996 C21.3097544,0.144917996 21.3832459,0.189765847 21.4272335,0.278380878 L25.2702505,8.00842133 C25.3147746,8.09055233 25.3196025,8.16079595 25.28688,8.2207732 C25.2530846,8.28021011 25.1887125,8.30992857 25.0926907,8.30992857 L24.0852666,8.30992857 C23.9892449,8.30992857 23.8932231,8.28021011 23.7972013,8.2207732 C23.7011795,8.16079595 23.6351981,8.08622965 23.5976476,7.99707428 L23.2655947,7.32813886 C23.221607,7.2465482 23.1529434,7.17576424 23.0606767,7.11632733 C22.9684099,7.05689042 22.8745339,7.02717196 22.7785121,7.02717196 L19.6339329,7.02717196 C19.5373747,7.02717196 19.4413529,7.05689042 19.3458676,7.11632733 C19.2498458,7.17576424 19.1833279,7.25033054 19.1457775,7.33948591 L18.8249896,7.99707428 C18.781002,8.08622965 18.7123384,8.16079595 18.6200717,8.2207732 C18.5278049,8.28021011 18.4333924,8.30992857 18.3384435,8.30992857 L17.330483,8.30992857 C17.2339248,8.30992857 17.1695527,8.28021011 17.1362937,8.2207732 C17.1030348,8.16079595 17.1051805,8.09055233 17.1421945,8.00842133 L20.9846751,0.278380878 C21.0286627,0.189765847 21.1026907,0.144917996 21.2056861,0.144917996 Z M27.3181966,0.145242197 C27.4142184,0.145242197 27.4957564,0.178202666 27.5622743,0.245204275 C27.6282558,0.312205884 27.6620511,0.394336888 27.6620511,0.490516617 L27.6620511,6.58063866 C27.6620511,6.67735872 27.6947737,6.75948973 27.7612915,6.82649134 C27.8278094,6.89349294 27.9093475,6.92645341 28.0048328,6.92645341 L31.6037721,6.92645341 C31.6997938,6.92645341 31.7807955,6.95995422 31.8473133,7.02695583 C31.9143677,7.09395744 31.9476266,7.1755481 31.9476266,7.27226817 L31.9476266,7.96389768 C31.9476266,8.06061774 31.9143677,8.14220841 31.8473133,8.20921002 C31.7807955,8.27621163 31.6997938,8.30971243 31.6037721,8.30971243 L26.4550735,8.30971243 C26.3585152,8.30971243 26.2775136,8.27621163 26.2115322,8.20921002 C26.1450143,8.14220841 26.1117554,8.06061774 26.1117554,7.96389768 L26.1117554,0.490516617 C26.1117554,0.394336888 26.1450143,0.312205884 26.2115322,0.245204275 C26.2775136,0.178202666 26.3585152,0.145242197 26.4550735,0.145242197 L27.3181966,0.145242197 Z M34.3501023,0.155994875 C34.4461241,0.155994875 34.5271257,0.190036015 34.59418,0.256497288 C34.6601614,0.323498897 34.6939568,0.405089566 34.6939568,0.50180963 L34.6939568,7.96384365 C34.6939568,8.06056371 34.6601614,8.14215438 34.59418,8.20915599 C34.5271257,8.2761576 34.4461241,8.3096584 34.3501023,8.3096584 L33.475714,8.3096584 C33.3791558,8.3096584 33.3002999,8.2761576 33.2375371,8.20915599 C33.1747742,8.14215438 33.143661,8.06056371 33.143661,7.96384365 L33.143661,0.50180963 C33.143661,0.405089566 33.1747742,0.323498897 33.2375371,0.256497288 C33.3002999,0.190036015 33.3791558,0.155994875 33.475714,0.155994875 L34.3501023,0.155994875 Z M42.3124536,0.14513413 C42.407939,0.14513413 42.4873313,0.178094599 42.5500941,0.245096208 C42.612857,0.312097817 42.6445066,0.394228821 42.6445066,0.49040855 L42.6445066,1.18203806 C42.6445066,1.27875812 42.612857,1.36088913 42.5500941,1.42789074 C42.4873313,1.49489235 42.407939,1.52785282 42.3124536,1.52785282 L38.5810151,1.52785282 C38.4844568,1.52785282 38.4034552,1.56135362 38.3369373,1.62835523 C38.2704195,1.69535684 38.2371605,1.77694751 38.2371605,1.87366757 L38.2371605,3.20127203 C38.2371605,3.29799209 38.2704195,3.37958276 38.3369373,3.44658437 C38.4034552,3.51304564 38.4844568,3.54708678 38.5810151,3.54708678 L41.814106,3.54708678 C41.9101277,3.54708678 41.9889836,3.58058759 42.0517465,3.64704886 C42.1150457,3.71405047 42.1461589,3.79618148 42.1461589,3.8923612 L42.1461589,4.64018561 C42.1461589,4.73690568 42.1150457,4.81849635 42.0517465,4.88549795 C41.9889836,4.95195923 41.9101277,4.98600037 41.814106,4.98600037 L38.5810151,4.98600037 C38.4844568,4.98600037 38.4034552,5.01896084 38.3369373,5.08596245 C38.2704195,5.15296405 38.2371605,5.23509506 38.2371605,5.33127479 L38.2371605,7.96378961 C38.2371605,8.06050968 38.2055109,8.14264068 38.142748,8.20964229 C38.0799852,8.2766439 38.0011293,8.30960437 37.9051075,8.30960437 L37.0301828,8.30960437 C36.9341611,8.30960437 36.8531594,8.2766439 36.7866416,8.20964229 C36.7201237,8.14264068 36.6868647,8.06050968 36.6868647,7.96378961 L36.6868647,0.49040855 C36.6868647,0.394228821 36.7201237,0.312097817 36.7866416,0.245096208 C36.8531594,0.178094599 36.9341611,0.14513413 37.0301828,0.14513413 L42.3124536,0.14513413 Z M45.3354768,0.155994875 C45.4314986,0.155994875 45.5125002,0.190036015 45.5790181,0.256497288 C45.6449995,0.323498897 45.6787949,0.405089566 45.6787949,0.50180963 L45.6787949,7.96384365 C45.6787949,8.06056371 45.6449995,8.14215438 45.5790181,8.20915599 C45.5125002,8.2761576 45.4314986,8.3096584 45.3354768,8.3096584 L44.4605521,8.3096584 C44.3645303,8.3096584 44.285138,8.2761576 44.2223751,8.20915599 C44.1596123,8.14215438 44.1284991,8.06056371 44.1284991,7.96384365 L44.1284991,0.50180963 C44.1284991,0.405089566 44.1596123,0.323498897 44.2223751,0.256497288 C44.285138,0.190036015 44.3645303,0.155994875 44.4605521,0.155994875 L45.3354768,0.155994875 Z M53.2972917,0.14513413 C53.3927771,0.14513413 53.4743151,0.178094599 53.540833,0.245096208 C53.6073509,0.312097817 53.6400734,0.394228821 53.6400734,0.49040855 L53.6400734,1.18203806 C53.6400734,1.27875812 53.6073509,1.36088913 53.540833,1.42789074 C53.4743151,1.49489235 53.3927771,1.52785282 53.2972917,1.52785282 L49.5658531,1.52785282 C49.4692949,1.52785282 49.3882933,1.56135362 49.3217754,1.62835523 C49.2552575,1.69535684 49.2219986,1.77694751 49.2219986,1.87366757 L49.2219986,3.22342579 C49.2219986,3.32014585 49.2552575,3.40173652 49.3217754,3.46873813 C49.3882933,3.53573974 49.4692949,3.56924054 49.5658531,3.56924054 L52.798944,3.56924054 C52.8949658,3.56924054 52.9759674,3.60274135 53.0424853,3.66920262 C53.1090032,3.73620423 53.1422621,3.81887557 53.1422621,3.91451496 L53.1422621,4.64018561 C53.1422621,4.73690568 53.1090032,4.81849635 53.0424853,4.88549795 C52.9759674,4.95195923 52.8949658,4.98600037 52.798944,4.98600037 L49.5658531,4.98600037 C49.4692949,4.98600037 49.3882933,5.01896084 49.3217754,5.08596245 C49.2552575,5.15296405 49.2219986,5.23509506 49.2219986,5.33127479 L49.2219986,6.55837683 C49.2219986,6.65563723 49.2552575,6.73668757 49.3217754,6.80368917 C49.3882933,6.87069078 49.4692949,6.90473192 49.5658531,6.90473192 L53.2972917,6.90473192 C53.3927771,6.90473192 53.4743151,6.93769239 53.540833,7.004694 C53.6073509,7.07169561 53.6400734,7.15328628 53.6400734,7.25000634 L53.6400734,7.96378961 C53.6400734,8.06050968 53.6073509,8.14264068 53.540833,8.20964229 C53.4743151,8.2766439 53.3927771,8.30960437 53.2972917,8.30960437 L48.0150209,8.30960437 C47.9189991,8.30960437 47.8379975,8.2766439 47.7714796,8.20964229 C47.7049617,8.14264068 47.6717028,8.06050968 47.6717028,7.96378961 L47.6717028,0.49040855 C47.6717028,0.394228821 47.7049617,0.312097817 47.7714796,0.245096208 C47.8379975,0.178094599 47.9189991,0.14513413 48.0150209,0.14513413 L53.2972917,0.14513413 Z M58.424372,0.144917996 C59.583607,0.144917996 60.5352419,0.486950402 61.2814223,1.17155555 C61.6799932,1.54276608 61.9793236,1.98151855 62.1783408,2.48727263 C62.3843317,3.03030986 62.4884,3.61008991 62.4884,4.22715311 C62.4884,4.55459646 62.4621147,4.86150706 62.410617,5.14734456 C62.3591193,5.43372241 62.2813363,5.7071322 62.1783408,5.96757394 C61.9857608,6.48035238 61.6875032,6.9228872 61.2814223,7.2951784 C60.9048453,7.63667047 60.4805256,7.88954751 60.0079267,8.05326918 C59.5203078,8.22401521 58.9924562,8.30992857 58.424372,8.30992857 L55.5667853,8.30992857 C55.4712999,8.30992857 55.3919076,8.27642776 55.3291448,8.20942615 C55.2663819,8.14242455 55.2347323,8.06083388 55.2347323,7.96411381 L55.2347323,0.490732751 C55.2347323,0.394012687 55.2663819,0.312422018 55.3291448,0.245420409 C55.3919076,0.1784188 55.4712999,0.144917996 55.5667853,0.144917996 L58.424372,0.144917996 Z M58.4351007,1.55033077 L57.1176175,1.55033077 C57.0215957,1.55033077 56.9422034,1.58329124 56.8794406,1.65029285 C56.8161413,1.71729446 56.7855645,1.79942547 56.7855645,1.89614553 L56.7855645,6.58031446 C56.7855645,6.67757486 56.8161413,6.75916553 56.8794406,6.82616713 C56.9422034,6.89316874 57.0215957,6.92666955 57.1176175,6.92666955 L58.4351007,6.92666955 C58.715656,6.92666955 59.0069399,6.89316874 59.3100254,6.82616713 C59.5980908,6.75916553 59.8641623,6.62516231 60.1071671,6.42469782 C60.3437348,6.23882239 60.5432884,5.96757394 60.7052916,5.61041214 C60.8608576,5.26837973 60.9381042,4.81125585 60.9381042,4.23850016 C60.9381042,3.67330917 60.8608576,3.21240294 60.7052916,2.85524114 C60.5432884,2.49861967 60.3437348,2.22737123 60.1071671,2.04095546 C59.8641623,1.84805567 59.5943357,1.71729446 59.2987603,1.65029285 C58.9962112,1.58329124 58.7086823,1.55033077 58.4351007,1.55033077 Z M4.15253969,1.5167219 C3.79098282,1.5167219 3.45839341,1.58750586 3.15638077,1.72853344 C2.83881153,1.87712572 2.56522992,2.06732383 2.33670881,2.29804712 C2.10014118,2.53579476 1.9156077,2.81460791 1.78310837,3.13448655 C1.65007261,3.46138957 1.58355473,3.80342197 1.58355473,4.16058377 C1.58355473,4.51720524 1.65007261,4.8554553 1.78310837,5.17533395 C1.9156077,5.49521259 2.10014118,5.77348541 2.33670881,6.01231372 C2.55771983,6.25006137 2.83076501,6.44350149 3.15638077,6.59209377 C3.45839341,6.73366169 3.79098282,6.80390531 4.15253969,6.80390531 C4.514633,6.80390531 4.85044101,6.73366169 5.16050017,6.59209377 C5.47055933,6.45052586 5.73984946,6.25708573 5.96890701,6.01231372 C6.2049382,5.77348541 6.38947168,5.49521259 6.52250744,5.17533395 C6.66251685,4.86302 6.73278977,4.52476994 6.73278977,4.16058377 C6.73278977,3.78883291 6.66251685,3.44680051 6.52250744,3.13448655 C6.38947168,2.81460791 6.2049382,2.53579476 5.96890701,2.29804712 C5.73233938,2.0592188 5.46251281,1.87010136 5.16050017,1.72853344 C4.85044101,1.58750586 4.514633,1.5167219 4.15253969,1.5167219 Z M21.2056861,3.37990696 C21.1466783,3.37990696 21.0989356,3.42421448 21.0619216,3.51336985 L20.1875333,5.35375275 C20.1505194,5.44344845 20.1505194,5.51747442 20.1875333,5.57691133 C20.2240109,5.63634824 20.2905288,5.6660667 20.3865506,5.6660667 L22.0258945,5.6660667 C22.1208434,5.6660667 22.185752,5.63472724 22.2190109,5.57150798 C22.2528063,5.50828872 22.2506605,5.43534342 22.2136466,5.35375275 L21.349987,3.51336985 C21.312973,3.42421448 21.2652303,3.37990696 21.2056861,3.37990696 Z" id="Combined-Shape"></path>
                    </g>
                </g>
            </g>
        </g>
    </g>
</svg>