<?xml version="1.0" encoding="UTF-8"?>
<svg width="93px" height="39px" viewBox="0 0 93 39" version="1.1" xmlns="http://www.w3.org/2000/svg" xmlns:xlink="http://www.w3.org/1999/xlink">
    <!-- Generator: Sketch 57.1 (83088) - https://sketch.com -->
    <title>Group 4</title>
    <desc>Created with Sketch.</desc>
    <g id="QUALIFIED-CARRIERS--WEB-" stroke="none" stroke-width="1" fill="none" fill-rule="evenodd">
        <g id="MY-CARRIER-LIST" transform="translate(-1146.000000, -310.000000)" fill="#E7EDF3">
            <g id="Group-4" transform="translate(1146.000000, 309.000000)">
                <text id="Certified-by:-Copy-4" font-family="SFProText-Regular, SF Pro Text" font-size="7" font-weight="normal">
                    <tspan x="1" y="7">Certified by:</tspan>
                </text>
                <g id="QC/Logo" transform="translate(0.000000, 12.000000)">
                    <path d="M0.000742388044,13.8514632 C0.0854266792,5.71924626 7.10382302,-0.751960054 15.4251689,0.0706215398 C21.880489,0.707986086 27.1348769,5.8589019 27.8990164,12.3008895 C28.374437,16.3097986 27.1403244,20.0166157 24.8474105,22.8270615 C24.578996,23.1554008 24.0793092,23.1658007 23.7791999,22.8661849 L23.7791999,22.8661849 L21.0772263,20.164195 C20.82664,19.9136073 20.7815741,19.5114783 20.9945229,19.2282052 C22.087495,17.7702399 22.7392174,15.9621452 22.7392174,13.9995378 C22.7392174,9.06107684 18.6406958,5.07891032 13.6596748,5.26808923 C9.16150273,5.43844929 5.43886052,9.16111386 5.26800625,13.6598081 C5.07882848,18.6408591 9.06097108,22.7384149 14.0003928,22.7384149 C14.8249504,22.7384149 15.6202894,22.619559 16.3760101,22.4041328 C16.63452,22.3308383 16.9118487,22.3937329 17.1020169,22.5839023 L17.1020169,22.5839023 L20.0560625,25.5369751 C20.417085,25.8989903 20.3041726,26.509117 19.8396471,26.7230576 C17.9434123,27.5961529 15.8203623,28.0596907 13.580438,27.9938248 C6.03957424,27.7719605 -0.0775039161,21.3948484 0.000742388044,13.8514632 Z M14,9.95555556 C16.1719337,9.95555556 17.9325843,11.6970255 17.9325843,13.8441983 C17.9325843,15.9923558 16.1719337,17.7333333 14,17.7333333 C11.8280663,17.7333333 10.0674157,15.9923558 10.0674157,13.8441983 C10.0674157,11.6970255 11.8280663,9.95555556 14,9.95555556 Z" id="Combined-Shape"></path>
                </g>
                <g id="QC/Logo-Text" transform="translate(31.000000, 16.000000)">
                    <path d="M4.12989827,11.5277889 C4.49992111,11.5277889 4.8704718,11.5807418 5.24155033,11.6844862 C5.60418327,11.788771 5.93831231,11.9335809 6.24393745,12.1194563 C6.40334815,12.2161764 6.55431324,12.3220822 6.69577704,12.437714 C6.83776868,12.5528054 6.97025903,12.6733003 7.09324808,12.8002791 C7.27482847,12.9931789 7.43159992,13.1898611 7.56197886,13.3914062 C7.61318031,13.4729969 7.62373731,13.5524262 7.59470556,13.6307749 C7.56567381,13.7085832 7.50708246,13.7669394 7.42051507,13.8036823 L6.61396029,14.13815 C6.53425494,14.1759735 6.44557615,14.1808365 6.3468682,14.1554407 C6.24921595,14.1289643 6.17056631,14.0787131 6.11303066,14.0046871 C6.07660901,13.9674039 6.04018736,13.9284998 6.00429356,13.8874343 C5.96734406,13.8463688 5.93145026,13.8074646 5.89502861,13.7707218 C5.81479542,13.6885908 5.73297867,13.6140245 5.64957837,13.5475632 C5.56670592,13.4805616 5.47749928,13.416802 5.38301413,13.3573651 C5.28800113,13.2984685 5.19034889,13.246056 5.08847384,13.2017484 C4.98659879,13.1569006 4.8852516,13.1163754 4.78337655,13.0785519 C4.57276441,13.0115503 4.35476236,12.9785899 4.12989827,12.9785899 C3.77359953,12.9785899 3.43260844,13.0526158 3.1058693,13.2017484 C2.78546436,13.3573651 2.51362162,13.5621523 2.28822968,13.8150293 C2.05544784,14.0749307 1.87070034,14.3688732 1.73240365,14.6963166 C1.59410695,15.0307843 1.5249586,15.3841638 1.5249586,15.7559146 C1.5249586,16.1352302 1.59410695,16.4880693 1.73240365,16.8155126 C1.87070034,17.142956 2.05544784,17.4363582 2.28822968,17.6962596 C2.51362162,17.9572417 2.78546436,18.1577062 3.1058693,18.2992741 C3.41730079,18.4554311 3.75934758,18.532699 4.12989827,18.532699 C4.35476236,18.532699 4.57276441,18.4997386 4.78337655,18.432737 C4.8852516,18.3954538 4.98659879,18.3543883 5.08847384,18.3100808 C5.19034889,18.2657733 5.28800113,18.2133607 5.38301413,18.1539238 C5.47749928,18.0944869 5.56670592,18.0296466 5.64957837,17.9588627 C5.73297867,17.8880787 5.81479542,17.8118914 5.89502861,17.7297604 C5.93145026,17.6924772 5.96734406,17.6535731 6.00429356,17.6130479 C6.04018736,17.5719824 6.07660901,17.5336186 6.11303066,17.4957951 C6.17056631,17.4217691 6.24921595,17.3693566 6.3468682,17.3396381 C6.44557615,17.3099197 6.53425494,17.313702 6.61396029,17.3509852 L7.42051507,17.6854529 C7.50708246,17.722736 7.56567381,17.7827133 7.59470556,17.864304 C7.62373731,17.9453543 7.61318031,18.0274853 7.56197886,18.109076 C7.48913556,18.2133607 7.41523657,18.3160245 7.33869832,18.4159866 C7.26268792,18.516489 7.18087117,18.6110477 7.09324808,18.7007434 C6.85360418,18.9606448 6.57067659,19.1875857 6.24393745,19.3810259 C6.09086096,19.4772056 5.93145026,19.5631189 5.76412182,19.6371449 C5.59679337,19.7117112 5.42260288,19.7749305 5.24155033,19.827343 C4.8704718,19.9310875 4.49992111,19.9835 4.12989827,19.9835 C3.56298739,19.9835 3.02933105,19.8716505 2.52787357,19.6490323 C2.02694394,19.4258737 1.5872449,19.1205841 1.20930431,18.7337039 C0.839281474,18.3543883 0.544741183,17.9086115 0.32673914,17.395833 C0.109264947,16.8819739 9.23705556e-14,16.336235 9.23705556e-14,15.7559146 C9.23705556e-14,15.1755942 0.109264947,14.629315 0.32673914,14.1159962 C0.544741183,13.6107825 0.839281474,13.1606829 1.20930431,12.766238 C1.59410695,12.3869224 2.03380599,12.0864959 2.52787357,11.8627969 C3.02933105,11.6396384 3.56298739,11.5277889 4.12989827,11.5277889 Z M54.0564834,11.5394601 C54.3906124,11.5394601 54.6883198,11.5616139 54.9506612,11.6064618 C55.0810402,11.6286155 55.2061406,11.656713 55.3259626,11.6896734 C55.4463124,11.7237146 55.5640229,11.7588364 55.6801499,11.7961195 C55.7962769,11.8409674 55.9092368,11.8912186 56.0179739,11.9463328 C56.1272389,12.0025277 56.232281,12.0603436 56.3341561,12.1192402 C56.4064715,12.164088 56.4756198,12.2083956 56.5410732,12.2532434 C56.6065266,12.2975509 56.6793699,12.3423988 56.7590753,12.3872466 C56.8387806,12.4466835 56.8862871,12.5212499 56.9005391,12.6104052 C56.9153189,12.6995606 56.8931492,12.7854739 56.8356135,12.8670646 L56.3779676,13.5354597 C56.3193763,13.618131 56.2449494,13.6667612 56.1546871,13.68081 C56.063369,13.6959393 55.9778573,13.6770276 55.898152,13.6256957 C55.6146965,13.4398203 55.3465487,13.2982524 55.0915972,13.2015323 C54.7506061,13.0605047 54.3837504,12.9897208 53.9915578,12.9897208 C53.9261044,12.9897208 53.8548447,12.9935031 53.7788343,13.0005275 C53.702296,13.0080922 53.6247021,13.0188989 53.5444689,13.0340283 C53.3771404,13.0713114 53.2177298,13.1275063 53.0651811,13.2015323 C52.9928657,13.2388155 52.9253009,13.2793406 52.8635424,13.3241885 C52.801784,13.3690363 52.745304,13.4209085 52.6946304,13.4803455 C52.6001453,13.5997596 52.5531666,13.7407872 52.5531666,13.9039685 C52.5531666,14.0682305 52.6112301,14.2054758 52.7273571,14.3167849 C52.8429563,14.4286344 52.9928657,14.5215721 53.1739182,14.595598 C53.2684033,14.6328812 53.3649999,14.666382 53.4626521,14.6961005 C53.5608322,14.7263593 53.6642908,14.7555374 53.7735558,14.7852558 C53.8822929,14.8155146 53.9894464,14.8414507 54.0944886,14.8636045 C54.2005864,14.8857582 54.3035172,14.9116943 54.4053922,14.9414128 C54.4856254,14.9560019 54.5690257,14.9754539 54.656121,14.9976077 C54.7432162,15.0197615 54.8377013,15.0381329 54.9390485,15.0532623 C55.0409236,15.0678513 55.1464936,15.0883841 55.2552307,15.1143202 C55.3644956,15.1407966 55.4732327,15.1721361 55.5824977,15.2094192 C55.6400333,15.2240083 55.7002082,15.24292 55.7624945,15.2650738 C55.8237251,15.2872276 55.8833722,15.3099217 55.9419635,15.3320754 C56.0295866,15.3693586 56.1288224,15.4174484 56.2412545,15.4768853 C56.3542144,15.5368626 56.4497552,15.5957592 56.5305162,15.6551961 C56.5880519,15.6930196 56.6408369,15.7313834 56.6883434,15.7724489 C56.735322,15.8129741 56.7807171,15.8562009 56.8240008,15.9005084 C57.0061091,16.0863838 57.1444058,16.3025181 57.2388909,16.5478304 C57.347628,16.8077318 57.4019966,17.1200458 57.4019966,17.4847723 C57.4019966,17.901371 57.3291533,18.2687991 57.1839945,18.5886778 C57.0388358,18.9009917 56.8313907,19.1576511 56.5627151,19.358656 C56.2871774,19.5742499 55.9673003,19.7304068 55.6041395,19.8271269 C55.218809,19.9308713 54.8086696,19.9832839 54.3726655,19.9832839 C53.9514412,19.9832839 53.5845855,19.9503234 53.2720983,19.8827815 C52.9743909,19.8309092 52.6872405,19.7455362 52.411175,19.6266624 C52.280796,19.5742499 52.1535842,19.5169743 52.0300673,19.453755 C51.9065504,19.3899954 51.7862006,19.3213728 51.6706014,19.2473468 C51.5977582,19.202499 51.5249149,19.1560301 51.4525994,19.1073999 C51.3797561,19.0593101 51.3032179,19.0058168 51.2240404,18.9458396 C51.1438072,18.8939674 51.0963007,18.8237238 51.0815209,18.7340281 C51.0672689,18.6448727 51.0857437,18.5589593 51.1364173,18.4773687 L51.5940632,17.7857392 C51.6447368,17.7041485 51.714413,17.6555183 51.8009804,17.6409292 C51.8886035,17.6257998 51.9720038,17.6447116 52.0517091,17.6965838 C52.3789761,17.904613 52.6983254,18.0834641 53.0108126,18.2320563 C53.4246469,18.4406259 53.8717359,18.5443703 54.3510237,18.5443703 C54.5980575,18.5443703 54.8160595,18.5108695 55.0045019,18.4438679 C55.1792203,18.3919957 55.338631,18.3098647 55.4837897,18.1985555 C55.6146965,18.0942708 55.7134045,17.9791793 55.77833,17.8527408 C55.8437834,17.733867 55.8759823,17.6074284 55.8759823,17.4734252 C55.8759823,17.3178086 55.8258365,17.1762407 55.7234336,17.0492618 C55.6294763,16.9455174 55.4990974,16.8525797 55.3312411,16.770989 C55.2515357,16.7337058 55.1644405,16.700205 55.0699553,16.6704866 C54.9754702,16.6407681 54.870428,16.6110497 54.7543011,16.5813312 C54.6450361,16.5516128 54.5341876,16.5256766 54.4217556,16.5029826 C54.3093235,16.4808288 54.1910851,16.458675 54.0680961,16.4365213 C53.987335,16.4208516 53.9002398,16.4046415 53.8062825,16.3862701 C53.7117973,16.3678987 53.6136172,16.3468256 53.5117422,16.3246718 C53.3016579,16.2949534 53.083128,16.2387585 52.8582639,16.1571678 C52.6254821,16.0901662 52.4037851,15.9972285 52.1931729,15.8783547 C51.9756987,15.7665052 51.7793385,15.6216953 51.6051481,15.4433845 C51.4309576,15.2796629 51.2889659,15.0716337 51.1802288,14.8187566 C51.0783538,14.5734443 51.0276802,14.2908488 51.0276802,13.9709701 C51.0276802,13.5024992 51.1221653,13.1053526 51.3106078,12.7773689 C51.4921882,12.4726197 51.7323599,12.2240653 52.0300673,12.0300848 C52.3129949,11.8593388 52.6402619,11.7334406 53.0108126,11.6507693 C53.3518036,11.5767433 53.7007125,11.5394601 54.0564834,11.5394601 Z M11.9207001,11.6623865 C12.0225751,11.6623865 12.0948906,11.706694 12.1387021,11.7958494 L15.9202194,19.5258898 C15.9635031,19.6074805 15.9687816,19.6782644 15.9360549,19.7377014 C15.9033282,19.7976786 15.8394584,19.8273971 15.7455011,19.8273971 L14.7541988,19.8273971 C14.6591858,19.8273971 14.5647007,19.7976786 14.4702155,19.7377014 C14.3762582,19.6782644 14.3108048,19.6036981 14.2743832,19.5145428 L13.947644,18.8456074 C13.9038325,18.7640167 13.8367955,18.6932327 13.7454775,18.6337958 C13.6546873,18.5738186 13.5623135,18.5446405 13.4683563,18.5446405 L10.3735718,18.5446405 C10.2790867,18.5446405 10.1846015,18.5738186 10.0901164,18.6337958 C9.99563121,18.6932327 9.93017781,18.767799 9.89375616,18.8569544 L9.57810187,19.5145428 C9.53481817,19.6036981 9.46725338,19.6782644 9.37646318,19.7377014 C9.28567298,19.7976786 9.19277138,19.8273971 9.09881409,19.8273971 L8.10698397,19.8273971 C8.01249882,19.8273971 7.94915682,19.7976786 7.91643013,19.7377014 C7.88370343,19.6782644 7.88528698,19.6074805 7.92170863,19.5258898 L11.7026981,11.7958494 C11.7465096,11.706694 11.8188251,11.6623865 11.9207001,11.6623865 Z M20.21354,11.6626026 C20.6194567,11.6626026 20.9937023,11.7290639 21.3357491,11.8630671 C21.6698782,12.0116594 21.9565007,12.2050995 22.1966724,12.4428472 C22.3196615,12.5692857 22.4289264,12.7065309 22.5234116,12.8556635 C22.616841,13.0042558 22.6976021,13.1641951 22.7630555,13.3349412 C22.8934344,13.6850786 22.9588878,14.0643942 22.9588878,14.4728878 C22.9588878,15.1050804 22.8100341,15.6443353 22.5123267,16.0901122 C22.2795449,16.447274 21.9781425,16.7304098 21.6075919,16.9378986 C21.5278865,16.9822062 21.4766851,17.0443447 21.4550432,17.1221531 C21.4334014,17.1999614 21.4513483,17.276689 21.5099396,17.350715 C21.7786152,17.7230062 22.0346225,18.0742243 22.2779613,18.4043693 C22.5213002,18.7361354 22.7736125,19.0873535 23.0348982,19.458564 C23.0934896,19.5412353 23.1098529,19.6222857 23.0839883,19.7044167 C23.0586515,19.7865477 22.9990044,19.8270729 22.9045193,19.8270729 L21.803952,19.8270729 C21.7094669,19.8270729 21.6112868,19.8011368 21.5099396,19.7492645 C21.4075367,19.696852 21.3278314,19.6336327 21.2702957,19.5590664 C21.146251,19.3888607 21.0248455,19.2191954 20.9050235,19.0522317 C20.7852016,18.8841873 20.6632682,18.7150623 20.5397513,18.5443162 L19.8213475,17.506872 C19.7622283,17.4252813 19.6830508,17.35882 19.5806479,17.3058672 C19.4793007,17.2539949 19.3811206,17.2280588 19.2866355,17.2280588 L18.4478819,17.2280588 C18.3533967,17.2280588 18.2736914,17.2615596 18.208238,17.3280209 C18.1427846,17.3955629 18.1100579,17.4771535 18.1100579,17.5738736 L18.1100579,19.4807178 C18.1100579,19.5779782 18.0789147,19.6601092 18.0176841,19.7271108 C17.9553978,19.7935721 17.877276,19.8270729 17.7833187,19.8270729 L16.9223954,19.8270729 C16.8279103,19.8270729 16.7476771,19.7935721 16.6827515,19.7271108 C16.6167703,19.6601092 16.5845714,19.5779782 16.5845714,19.4807178 L16.5845714,12.007877 C16.5845714,11.9116973 16.6167703,11.829026 16.6827515,11.7625647 C16.7476771,11.6955631 16.8279103,11.6626026 16.9223954,11.6626026 L20.21354,11.6626026 Z M28.0586049,11.6626026 C28.4650493,11.6626026 28.8387671,11.7290639 29.1808139,11.8630671 C29.514943,12.0116594 29.8015655,12.2050995 30.0417372,12.4428472 C30.1647263,12.5692857 30.2739912,12.7065309 30.3684764,12.8556635 C30.4624337,13.0042558 30.5426669,13.1641951 30.6081203,13.3349412 C30.7390271,13.6850786 30.8044805,14.0643942 30.8044805,14.4728878 C30.8044805,15.1050804 30.6556268,15.6443353 30.3573915,16.0901122 C30.1251375,16.447274 29.8232073,16.7304098 29.4531845,16.9378986 C29.3729513,16.9822062 29.3222777,17.0443447 29.3006359,17.1221531 C29.2784662,17.1999614 29.2969409,17.276689 29.3555323,17.350715 C29.6236801,17.7230062 29.8796873,18.0742243 30.123554,18.4043693 C30.3668928,18.7361354 30.6186773,19.0873535 30.8804909,19.458564 C30.9385544,19.5412353 30.9549177,19.6222857 30.9295809,19.7044167 C30.9037163,19.7865477 30.8440692,19.8270729 30.7495841,19.8270729 L29.6490169,19.8270729 C29.5550596,19.8270729 29.4568795,19.8011368 29.3555323,19.7492645 C29.2531294,19.696852 29.173424,19.6336327 29.1153605,19.5590664 C28.9913158,19.3888607 28.8704381,19.2191954 28.7500883,19.0522317 C28.6302664,18.8841873 28.5088609,18.7150623 28.385344,18.5443162 L27.6664123,17.506872 C27.607821,17.4252813 27.5281156,17.35882 27.4262406,17.3058672 C27.3243655,17.2539949 27.2267133,17.2280588 27.1322281,17.2280588 L26.2934745,17.2280588 C26.1984615,17.2280588 26.1187562,17.2615596 26.0533028,17.3280209 C25.9878494,17.3955629 25.9551227,17.4771535 25.9551227,17.5738736 L25.9551227,19.4807178 C25.9551227,19.5779782 25.9245074,19.6601092 25.8627489,19.7271108 C25.8009905,19.7935721 25.7228687,19.8270729 25.6283835,19.8270729 L24.7674602,19.8270729 C24.6735029,19.8270729 24.5932697,19.7935721 24.5278163,19.7271108 C24.4623629,19.6601092 24.4301641,19.5779782 24.4301641,19.4807178 L24.4301641,12.007877 C24.4301641,11.9116973 24.4623629,11.829026 24.5278163,11.7625647 C24.5932697,11.6955631 24.6735029,11.6626026 24.7674602,11.6626026 L28.0586049,11.6626026 Z M33.6807878,11.6729771 C33.775273,11.6729771 33.8549783,11.7070182 33.9204317,11.7740198 C33.9858851,11.8410214 34.0186118,11.9226121 34.0186118,12.0193322 L34.0186118,19.4808258 C34.0186118,19.5780862 33.9858851,19.6596769 33.9204317,19.7266785 C33.8549783,19.7936801 33.775273,19.8271809 33.6807878,19.8271809 L32.8198645,19.8271809 C32.7248515,19.8271809 32.6472575,19.7936801 32.5860269,19.7266785 C32.5237406,19.6596769 32.4931253,19.5780862 32.4931253,19.4808258 L32.4931253,12.0193322 C32.4931253,11.9226121 32.5237406,11.8410214 32.5860269,11.7740198 C32.6472575,11.7070182 32.7248515,11.6729771 32.8198645,11.6729771 L33.6807878,11.6729771 Z M41.5157179,11.6626026 C41.6091473,11.6626026 41.6899084,11.6955631 41.7548339,11.7625647 C41.8202873,11.829026 41.853014,11.9116973 41.853014,12.007877 L41.853014,12.6995066 C41.853014,12.7962266 41.8202873,12.8778173 41.7548339,12.9453592 C41.6899084,13.0118205 41.6091473,13.0453213 41.5157179,13.0453213 L37.8434656,13.0453213 C37.7484526,13.0453213 37.6687472,13.0788221 37.6032938,13.1458237 C37.5378404,13.212285 37.5051137,13.294416 37.5051137,13.3911361 L37.5051137,14.7403539 C37.5051137,14.8376143 37.5378404,14.919205 37.6032938,14.9862066 C37.6687472,15.0532082 37.7484526,15.086709 37.8434656,15.086709 L41.0248174,15.086709 C41.1193026,15.086709 41.1990079,15.1196695 41.2644613,15.1866711 C41.3299147,15.2536727 41.3626414,15.3358037 41.3626414,15.4319835 L41.3626414,16.1571138 C41.3626414,16.2543742 41.3299147,16.3359648 41.2644613,16.4024261 C41.1990079,16.4694277 41.1193026,16.5029285 41.0248174,16.5029285 L37.8434656,16.5029285 C37.7484526,16.5029285 37.6687472,16.5364293 37.6032938,16.6034309 C37.5378404,16.6704325 37.5051137,16.7525635 37.5051137,16.8487433 L37.5051137,18.0758453 C37.5051137,18.1725654 37.5378404,18.2541561 37.6032938,18.3211577 C37.6687472,18.3881593 37.7484526,18.4222004 37.8434656,18.4222004 L41.5157179,18.4222004 C41.6091473,18.4222004 41.6899084,18.4551609 41.7548339,18.5221625 C41.8202873,18.5886238 41.853014,18.6707548 41.853014,18.7674748 L41.853014,19.4812581 C41.853014,19.5779782 41.8202873,19.6601092 41.7548339,19.7271108 C41.6899084,19.7935721 41.6091473,19.8270729 41.5157179,19.8270729 L36.3174513,19.8270729 C36.2229661,19.8270729 36.1432608,19.7935721 36.0778074,19.7271108 C36.012354,19.6601092 35.9796273,19.5779782 35.9796273,19.4812581 L35.9796273,12.007877 C35.9796273,11.9116973 36.012354,11.829026 36.0778074,11.7625647 C36.1432608,11.6955631 36.2229661,11.6626026 36.3174513,11.6626026 L41.5157179,11.6626026 Z M47.0509112,11.6626026 C47.4573557,11.6626026 47.8316013,11.7290639 48.1731202,11.8630671 C48.5072493,12.0116594 48.7938718,12.2050995 49.0340436,12.4428472 C49.1575605,12.5692857 49.2662976,12.7065309 49.3607827,12.8556635 C49.45474,13.0042558 49.5349732,13.1641951 49.6004266,13.3349412 C49.7313334,13.6850786 49.7962589,14.0643942 49.7962589,14.4728878 C49.7962589,15.1050804 49.6479331,15.6443353 49.3496979,16.0901122 C49.1174439,16.447274 48.8155137,16.7304098 48.444963,16.9378986 C48.3652576,16.9822062 48.314584,17.0443447 48.2929422,17.1221531 C48.2707725,17.1999614 48.2887194,17.276689 48.3473107,17.350715 C48.6165142,17.7230062 48.8719936,18.0742243 49.1153325,18.4043693 C49.3586713,18.7361354 49.6115114,19.0873535 49.8722693,19.458564 C49.9308607,19.5412353 49.947224,19.6222857 49.9218872,19.7044167 C49.8960226,19.7865477 49.8363755,19.8270729 49.7418904,19.8270729 L48.6413232,19.8270729 C48.5473659,19.8270729 48.4486579,19.8011368 48.3473107,19.7492645 C48.2454357,19.696852 48.1657303,19.6336327 48.1076668,19.5590664 C47.98415,19.3888607 47.8622166,19.2191954 47.7423947,19.0522317 C47.6231006,18.8841873 47.5006394,18.7150623 47.3776503,18.5443162 L46.6587186,17.506872 C46.6001273,17.4252813 46.5204219,17.35882 46.4185469,17.3058672 C46.3166719,17.2539949 46.2190196,17.2280588 46.1245345,17.2280588 L45.285253,17.2280588 C45.1907678,17.2280588 45.1110625,17.2615596 45.0456091,17.3280209 C44.9806835,17.3955629 44.947429,17.4771535 44.947429,17.5738736 L44.947429,19.4807178 C44.947429,19.5779782 44.9168137,19.6601092 44.8555831,19.7271108 C44.792769,19.7935721 44.715175,19.8270729 44.6206899,19.8270729 L43.7597665,19.8270729 C43.6658092,19.8270729 43.585576,19.7935721 43.5201226,19.7271108 C43.4546692,19.6601092 43.4224704,19.5779782 43.4224704,19.4807178 L43.4224704,12.007877 C43.4224704,11.9116973 43.4546692,11.829026 43.5201226,11.7625647 C43.585576,11.6955631 43.6658092,11.6626026 43.7597665,11.6626026 L47.0509112,11.6626026 Z M11.9207001,14.8973755 C11.8626366,14.8973755 11.8151301,14.941683 11.7792363,15.0308383 L10.918313,16.8712212 C10.8818913,16.9603766 10.8818913,17.0349429 10.918313,17.0943798 C10.9542068,17.1538167 11.0196602,17.1835352 11.1146732,17.1835352 L12.7272549,17.1835352 C12.8212122,17.1835352 12.885082,17.1516554 12.9178087,17.0889765 C12.9510633,17.0257572 12.9489519,16.9528119 12.9120024,16.8712212 L12.0626917,15.0308383 C12.0262701,14.941683 11.9787636,14.8973755 11.9207001,14.8973755 Z M20.21354,13.0453213 L18.4478819,13.0453213 C18.3533967,13.0453213 18.2736914,13.0788221 18.208238,13.1458237 C18.1427846,13.212285 18.1100579,13.294416 18.1100579,13.3911361 L18.1100579,15.4989851 C18.1100579,15.5957051 18.1427846,15.6772958 18.208238,15.7442974 C18.2736914,15.811299 18.3533967,15.8447998 18.4478819,15.8447998 L20.21354,15.8447998 C20.343919,15.8447998 20.4853828,15.8150814 20.6379314,15.7556444 C20.7973421,15.6967479 20.9319439,15.6108345 21.0412088,15.4989851 C21.1499459,15.3876759 21.2444311,15.2466484 21.3241364,15.075362 C21.3969797,14.919205 21.4334014,14.7182002 21.4334014,14.4728878 C21.4334014,14.3388846 21.4186216,14.197857 21.3901177,14.0492648 C21.3753379,13.9671338 21.353696,13.8871641 21.3241364,13.8088154 C21.2956325,13.7315475 21.262378,13.6548198 21.2264842,13.5807938 C21.1393889,13.4316612 21.0153442,13.305763 20.8559335,13.2014783 C20.688605,13.0971935 20.4748258,13.0453213 20.21354,13.0453213 Z M47.0509112,13.0453213 L45.285253,13.0453213 C45.1907678,13.0453213 45.1110625,13.0788221 45.0456091,13.1458237 C44.9806835,13.212285 44.947429,13.294416 44.947429,13.3911361 L44.947429,15.4989851 C44.947429,15.5957051 44.9806835,15.6772958 45.0456091,15.7442974 C45.1110625,15.811299 45.1907678,15.8447998 45.285253,15.8447998 L47.0509112,15.8447998 C47.181818,15.8447998 47.3227539,15.8150814 47.4753026,15.7556444 C47.6352411,15.6967479 47.7698429,15.6108345 47.87858,15.4989851 C47.9878449,15.3876759 48.08233,15.2466484 48.1620354,15.075362 C48.2348787,14.919205 48.2707725,14.7182002 48.2707725,14.4728878 C48.2707725,14.3388846 48.2565205,14.197857 48.2274888,14.0492648 C48.212709,13.9671338 48.1910671,13.8871641 48.1620354,13.8088154 C48.1330036,13.7315475 48.1002769,13.6548198 48.0643831,13.5807938 C47.9772879,13.4316612 47.8532432,13.305763 47.6933046,13.2014783 C47.5259762,13.0971935 47.3121969,13.0453213 47.0509112,13.0453213 Z M28.0586049,13.0453213 L26.2934745,13.0453213 C26.1984615,13.0453213 26.1187562,13.0788221 26.0533028,13.1458237 C25.9878494,13.212285 25.9551227,13.294416 25.9551227,13.3911361 L25.9551227,15.4989851 C25.9551227,15.5957051 25.9878494,15.6772958 26.0533028,15.7442974 C26.1187562,15.811299 26.1984615,15.8447998 26.2934745,15.8447998 L28.0586049,15.8447998 C28.1889838,15.8447998 28.3304476,15.8150814 28.4829962,15.7556444 C28.6429348,15.6967479 28.7775365,15.6108345 28.8862736,15.4989851 C28.9955386,15.3876759 29.0900237,15.2466484 29.1697291,15.075362 C29.2425724,14.919205 29.2784662,14.7182002 29.2784662,14.4728878 C29.2784662,14.3388846 29.2642142,14.197857 29.2351825,14.0492648 C29.2209305,13.9671338 29.1987608,13.8871641 29.1697291,13.8088154 C29.1412252,13.7315475 29.1079706,13.6548198 29.0720768,13.5807938 C28.9849816,13.4316612 28.8609368,13.305763 28.7015261,13.2014783 C28.5341977,13.0971935 28.3198906,13.0453213 28.0586049,13.0453213 Z M10.6349631,0.156265043 C10.7289204,0.156265043 10.8096815,0.189765847 10.874607,0.25622712 C10.9400604,0.323228729 10.9722592,0.405359733 10.9722592,0.501539462 L10.9722592,5.00793799 C10.9722592,5.41697201 11.0377126,5.75522206 11.1686194,6.0232285 C11.2995262,6.28367024 11.4594648,6.49548177 11.6484351,6.65866311 C11.8516573,6.82292512 12.0585745,6.9304519 12.2691867,6.98232411 C12.3853137,7.01204256 12.4924672,7.03419632 12.5906473,7.04986605 C12.6888274,7.06445511 12.7812011,7.07201981 12.8688242,7.07201981 C13.0287628,7.07201981 13.2245951,7.04176102 13.4568491,6.98232411 C13.6822411,6.9304519 13.8891583,6.82292512 14.0781286,6.65866311 C14.2739609,6.50304647 14.4381222,6.2906946 14.5685012,6.0232285 C14.699408,5.75522206 14.7648614,5.41697201 14.7648614,5.00793799 L14.7648614,0.501539462 C14.7648614,0.405359733 14.7970602,0.323228729 14.8625136,0.25622712 C14.927967,0.189765847 15.0082002,0.156265043 15.1026854,0.156265043 L15.9525238,0.156265043 C16.047009,0.156265043 16.1267143,0.189765847 16.1921677,0.25622712 C16.2576211,0.323228729 16.2903478,0.405359733 16.2903478,0.501539462 L16.2903478,5.01928504 C16.2903478,5.27972678 16.2697617,5.52666012 16.2301729,5.76116575 C16.1900563,5.99513105 16.1304093,6.21991064 16.0501761,6.43604486 C15.8907654,6.85210324 15.6616785,7.21304739 15.3639711,7.51779664 C15.0731258,7.80795684 14.7136599,8.03868012 14.2855736,8.20942615 C13.8712114,8.37314783 13.3987856,8.4547385 12.8688242,8.4547385 C12.338335,8.4547385 11.8701321,8.37314783 11.4631597,8.20942615 C11.0271556,8.03868012 10.6676898,7.80795684 10.3842344,7.51779664 C10.0791371,7.22061209 9.84635523,6.85966794 9.68694454,6.43604486 C9.52700599,6.01944615 9.44730065,5.54719288 9.44730065,5.01928504 L9.44730065,0.501539462 C9.44730065,0.405359733 9.48002735,0.323228729 9.54495289,0.25622712 C9.61040629,0.189765847 9.68694454,0.156265043 9.77403979,0.156265043 L10.6349631,0.156265043 Z M4.08608672,2.84217094e-14 C4.6308279,2.84217094e-14 5.15709434,0.108067111 5.66594172,0.323120662 C6.16000931,0.546819582 6.58809564,0.843463801 6.95178428,1.215755 C7.32233497,1.60263526 7.61318031,2.04462974 7.82379245,2.54281912 C8.04126665,3.0485732 8.15053159,3.58728775 8.15053159,4.16058377 C8.15053159,4.39076672 8.12149984,4.6441841 8.06343635,4.91867456 C8.00537285,5.17965663 7.91774975,5.43199333 7.80162275,5.67730568 C7.66332606,5.93018272 7.50391536,6.15658331 7.32233497,6.35758814 C7.26479932,6.42458975 7.19881807,6.486188 7.12650263,6.54184256 C7.05365933,6.59749713 6.97712108,6.65531303 6.89741573,6.71474994 C6.73061514,6.8265994 6.74486709,6.88171363 6.94069943,6.88171363 L7.97581325,6.88171363 C8.07082625,6.88171363 8.15053159,6.91575477 8.21598499,6.98221604 C8.28143839,7.04975799 8.31416509,7.13134866 8.31416509,7.22806872 L8.31416509,7.97535279 C8.31416509,8.07153252 8.28143839,8.15366353 8.21598499,8.22066513 C8.15053159,8.28766674 8.07082625,8.32062721 7.97581325,8.32062721 L4.34737246,8.32062721 C3.60679894,8.32062721 2.96387766,8.20931809 2.41913647,7.9861595 C1.87439529,7.77110595 1.42730635,7.47338106 1.07892537,7.0940655 C0.730544377,6.7369037 0.465035835,6.29815123 0.283455441,5.77726775 C0.116126996,5.26448931 0.032198849,4.72577476 0.032198849,4.16058377 C0.032198849,3.59539278 0.137768846,3.0561379 0.348380989,2.54281912 C0.566383032,2.04462974 0.857228373,1.60263526 1.22038916,1.215755 C1.5978019,0.836439439 2.02694394,0.539254884 2.50623172,0.323120662 C3.00768921,0.108067111 3.53395564,2.84217094e-14 4.08608672,2.84217094e-14 Z M20.8663321,0.144917996 C20.968735,0.144917996 21.0410505,0.189765847 21.0843342,0.278380878 L24.8658514,8.00842133 C24.909663,8.09055233 24.9144136,8.16079595 24.8822148,8.2207732 C24.8489602,8.28021011 24.7856182,8.30992857 24.6911331,8.30992857 L23.6998308,8.30992857 C23.6053457,8.30992857 23.5108605,8.28021011 23.4163754,8.2207732 C23.3218902,8.16079595 23.2569647,8.08622965 23.2200152,7.99707428 L22.8932761,7.32813886 C22.8499924,7.2465482 22.7824276,7.17576424 22.6916374,7.11632733 C22.6008472,7.05689042 22.5084734,7.02717196 22.4139883,7.02717196 L19.3197317,7.02717196 C19.2247187,7.02717196 19.1302335,7.05689042 19.0362762,7.11632733 C18.9417911,7.17576424 18.8763377,7.25033054 18.8393882,7.33948591 L18.5237339,7.99707428 C18.4804502,8.08622965 18.4128854,8.16079595 18.3220952,8.2207732 C18.231305,8.28021011 18.1384034,8.30992857 18.044974,8.30992857 L17.0531438,8.30992857 C16.9581308,8.30992857 16.8947888,8.28021011 16.8620621,8.2207732 C16.8293354,8.16079595 16.8314468,8.09055233 16.8678685,8.00842133 L20.6488579,0.278380878 C20.6921416,0.189765847 20.7649849,0.144917996 20.8663321,0.144917996 Z M26.8810243,0.145242197 C26.9755095,0.145242197 27.0557427,0.178202666 27.1211961,0.245204275 C27.1861216,0.312205884 27.2193762,0.394336888 27.2193762,0.490516617 L27.2193762,6.58063866 C27.2193762,6.67735872 27.251575,6.75948973 27.3170284,6.82649134 C27.3824818,6.89349294 27.462715,6.92645341 27.5566723,6.92645341 L31.0980178,6.92645341 C31.192503,6.92645341 31.2722083,6.95995422 31.3376617,7.02695583 C31.403643,7.09395744 31.4363697,7.1755481 31.4363697,7.27226817 L31.4363697,7.96389768 C31.4363697,8.06061774 31.403643,8.14220841 31.3376617,8.20921002 C31.2722083,8.27621163 31.192503,8.30971243 31.0980178,8.30971243 L26.0317137,8.30971243 C25.9367007,8.30971243 25.8569954,8.27621163 25.7920698,8.20921002 C25.7266164,8.14220841 25.6938897,8.06061774 25.6938897,7.96389768 L25.6938897,0.490516617 C25.6938897,0.394336888 25.7266164,0.312205884 25.7920698,0.245204275 C25.8569954,0.178202666 25.9367007,0.145242197 26.0317137,0.145242197 L26.8810243,0.145242197 Z M33.8003986,0.155994875 C33.8948838,0.155994875 33.9745891,0.190036015 34.0405704,0.256497288 C34.1054959,0.323498897 34.1387505,0.405089566 34.1387505,0.50180963 L34.1387505,7.96384365 C34.1387505,8.06056371 34.1054959,8.14215438 34.0405704,8.20915599 C33.9745891,8.2761576 33.8948838,8.3096584 33.8003986,8.3096584 L32.9400031,8.3096584 C32.8449901,8.3096584 32.7673962,8.2761576 32.7056378,8.20915599 C32.6438793,8.14215438 32.613264,8.06056371 32.613264,7.96384365 L32.613264,0.50180963 C32.613264,0.405089566 32.6438793,0.323498897 32.7056378,0.256497288 C32.7673962,0.190036015 32.8449901,0.155994875 32.9400031,0.155994875 L33.8003986,0.155994875 Z M41.6353287,0.14513413 C41.729286,0.14513413 41.8074078,0.178094599 41.8691662,0.245096208 C41.9309247,0.312097817 41.9620678,0.394228821 41.9620678,0.49040855 L41.9620678,1.18203806 C41.9620678,1.27875812 41.9309247,1.36088913 41.8691662,1.42789074 C41.8074078,1.49489235 41.729286,1.52785282 41.6353287,1.52785282 L37.9636042,1.52785282 C37.8685912,1.52785282 37.7888859,1.56135362 37.7234325,1.62835523 C37.6579791,1.69535684 37.6252524,1.77694751 37.6252524,1.87366757 L37.6252524,3.20127203 C37.6252524,3.29799209 37.6579791,3.37958276 37.7234325,3.44658437 C37.7888859,3.51304564 37.8685912,3.54708678 37.9636042,3.54708678 L41.1449561,3.54708678 C41.2394412,3.54708678 41.3170352,3.58058759 41.3787936,3.64704886 C41.4410799,3.71405047 41.4716952,3.79618148 41.4716952,3.8923612 L41.4716952,4.64018561 C41.4716952,4.73690568 41.4410799,4.81849635 41.3787936,4.88549795 C41.3170352,4.95195923 41.2394412,4.98600037 41.1449561,4.98600037 L37.9636042,4.98600037 C37.8685912,4.98600037 37.7888859,5.01896084 37.7234325,5.08596245 C37.6579791,5.15296405 37.6252524,5.23509506 37.6252524,5.33127479 L37.6252524,7.96378961 C37.6252524,8.06050968 37.5941092,8.14264068 37.5323508,8.20964229 C37.4705923,8.2766439 37.3929984,8.30960437 37.2985132,8.30960437 L36.4375899,8.30960437 C36.3431048,8.30960437 36.2633994,8.2766439 36.197946,8.20964229 C36.1324926,8.14264068 36.0997659,8.06050968 36.0997659,7.96378961 L36.0997659,0.49040855 C36.0997659,0.394228821 36.1324926,0.312097817 36.197946,0.245096208 C36.2633994,0.178094599 36.3431048,0.14513413 36.4375899,0.14513413 L41.6353287,0.14513413 Z M44.6099745,0.155994875 C44.7044596,0.155994875 44.784165,0.190036015 44.8496184,0.256497288 C44.9145439,0.323498897 44.9477985,0.405089566 44.9477985,0.50180963 L44.9477985,7.96384365 C44.9477985,8.06056371 44.9145439,8.14215438 44.8496184,8.20915599 C44.784165,8.2761576 44.7044596,8.3096584 44.6099745,8.3096584 L43.7490512,8.3096584 C43.654566,8.3096584 43.5764442,8.2761576 43.5146858,8.20915599 C43.4529273,8.14215438 43.422312,8.06056371 43.422312,7.96384365 L43.422312,0.50180963 C43.422312,0.405089566 43.4529273,0.323498897 43.5146858,0.256497288 C43.5764442,0.190036015 43.654566,0.155994875 43.7490512,0.155994875 L44.6099745,0.155994875 Z M52.4443767,0.14513413 C52.538334,0.14513413 52.6185672,0.178094599 52.6840206,0.245096208 C52.749474,0.312097817 52.7816729,0.394228821 52.7816729,0.49040855 L52.7816729,1.18203806 C52.7816729,1.27875812 52.749474,1.36088913 52.6840206,1.42789074 C52.6185672,1.49489235 52.538334,1.52785282 52.4443767,1.52785282 L48.7726523,1.52785282 C48.6776393,1.52785282 48.5979339,1.56135362 48.5324805,1.62835523 C48.4670271,1.69535684 48.4343004,1.77694751 48.4343004,1.87366757 L48.4343004,3.22342579 C48.4343004,3.32014585 48.4670271,3.40173652 48.5324805,3.46873813 C48.5979339,3.53573974 48.6776393,3.56924054 48.7726523,3.56924054 L51.9540041,3.56924054 C52.0484893,3.56924054 52.1281946,3.60274135 52.193648,3.66920262 C52.2591014,3.73620423 52.2918281,3.81887557 52.2918281,3.91451496 L52.2918281,4.64018561 C52.2918281,4.73690568 52.2591014,4.81849635 52.193648,4.88549795 C52.1281946,4.95195923 52.0484893,4.98600037 51.9540041,4.98600037 L48.7726523,4.98600037 C48.6776393,4.98600037 48.5979339,5.01896084 48.5324805,5.08596245 C48.4670271,5.15296405 48.4343004,5.23509506 48.4343004,5.33127479 L48.4343004,6.55837683 C48.4343004,6.65563723 48.4670271,6.73668757 48.5324805,6.80368917 C48.5979339,6.87069078 48.6776393,6.90473192 48.7726523,6.90473192 L52.4443767,6.90473192 C52.538334,6.90473192 52.6185672,6.93769239 52.6840206,7.004694 C52.749474,7.07169561 52.7816729,7.15328628 52.7816729,7.25000634 L52.7816729,7.96378961 C52.7816729,8.06050968 52.749474,8.14264068 52.6840206,8.20964229 C52.6185672,8.2766439 52.538334,8.30960437 52.4443767,8.30960437 L47.246638,8.30960437 C47.1521528,8.30960437 47.0724475,8.2766439 47.0069941,8.20964229 C46.9415407,8.14264068 46.908814,8.06050968 46.908814,7.96378961 L46.908814,0.49040855 C46.908814,0.394228821 46.9415407,0.312097817 47.0069941,0.245096208 C47.0724475,0.178094599 47.1521528,0.14513413 47.246638,0.14513413 L52.4443767,0.14513413 Z M57.4894085,0.144917996 C58.6300923,0.144917996 59.5664982,0.486950402 60.3007375,1.17155555 C60.6929301,1.54276608 60.9874704,1.98151855 61.1833027,2.48727263 C61.3859971,3.03030986 61.4884,3.61008991 61.4884,4.22715311 C61.4884,4.55459646 61.4625354,4.86150706 61.4118618,5.14734456 C61.3611882,5.43372241 61.2846499,5.7071322 61.1833027,5.96757394 C60.9938046,6.48035238 60.70032,6.9228872 60.3007375,7.2951784 C59.9301868,7.63667047 59.5126575,7.88954751 59.0476217,8.05326918 C58.567806,8.22401521 58.0484017,8.30992857 57.4894085,8.30992857 L54.6775517,8.30992857 C54.5835944,8.30992857 54.5054726,8.27642776 54.4437141,8.20942615 C54.3819557,8.14242455 54.3508125,8.06083388 54.3508125,7.96411381 L54.3508125,0.490732751 C54.3508125,0.394012687 54.3819557,0.312422018 54.4437141,0.245420409 C54.5054726,0.1784188 54.5835944,0.144917996 54.6775517,0.144917996 L57.4894085,0.144917996 Z M57.4999655,1.55033077 L56.203566,1.55033077 C56.1090808,1.55033077 56.030959,1.58329124 55.9692006,1.65029285 C55.9069143,1.71729446 55.8768268,1.79942547 55.8768268,1.89614553 L55.8768268,6.58031446 C55.8768268,6.67757486 55.9069143,6.75916553 55.9692006,6.82616713 C56.030959,6.89316874 56.1090808,6.92666955 56.203566,6.92666955 L57.4999655,6.92666955 C57.7760311,6.92666955 58.0626536,6.89316874 58.3608888,6.82616713 C58.6443443,6.75916553 58.9061579,6.62516231 59.1452739,6.42469782 C59.3780558,6.23882239 59.574416,5.96757394 59.7338267,5.61041214 C59.8869032,5.26837973 59.9629135,4.81125585 59.9629135,4.23850016 C59.9629135,3.67330917 59.8869032,3.21240294 59.7338267,2.85524114 C59.574416,2.49861967 59.3780558,2.22737123 59.1452739,2.04095546 C58.9061579,1.84805567 58.6406493,1.71729446 58.349804,1.65029285 C58.0520966,1.58329124 57.769169,1.55033077 57.4999655,1.55033077 Z M4.08608672,1.5167219 C3.73031583,1.5167219 3.40304884,1.58750586 3.1058693,1.72853344 C2.79338211,1.87712572 2.52417862,2.06732383 2.29931453,2.29804712 C2.06653268,2.53579476 1.88495229,2.81460791 1.75457334,3.13448655 C1.62366655,3.46138957 1.55821315,3.80342197 1.55821315,4.16058377 C1.55821315,4.51720524 1.62366655,4.8554553 1.75457334,5.17533395 C1.88495229,5.49521259 2.06653268,5.77348541 2.29931453,6.01231372 C2.51678872,6.25006137 2.78546436,6.44350149 3.1058693,6.59209377 C3.40304884,6.73366169 3.73031583,6.80390531 4.08608672,6.80390531 C4.44238546,6.80390531 4.77281955,6.73366169 5.07791684,6.59209377 C5.38301413,6.45052586 5.64799482,6.25708573 5.87338676,6.01231372 C6.10564076,5.77348541 6.28722115,5.49521259 6.41812795,5.17533395 C6.55589679,4.86302 6.62504514,4.52476994 6.62504514,4.16058377 C6.62504514,3.78883291 6.55589679,3.44680051 6.41812795,3.13448655 C6.28722115,2.81460791 6.10564076,2.53579476 5.87338676,2.29804712 C5.64060492,2.0592188 5.37509638,1.87010136 5.07791684,1.72853344 C4.77281955,1.58750586 4.44238546,1.5167219 4.08608672,1.5167219 Z M20.8663321,3.37990696 C20.8082686,3.37990696 20.76129,3.42421448 20.7248683,3.51336985 L19.8644729,5.35375275 C19.8280512,5.44344845 19.8280512,5.51747442 19.8644729,5.57691133 C19.9003667,5.63634824 19.9658201,5.6660667 20.0603052,5.6660667 L21.6734147,5.6660667 C21.7668442,5.6660667 21.830714,5.63472724 21.8634407,5.57150798 C21.8966953,5.50828872 21.8945839,5.43534342 21.8581622,5.35375275 L21.0083238,3.51336985 C20.9719021,3.42421448 20.9249235,3.37990696 20.8663321,3.37990696 Z" id="Combined-Shape"></path>
                </g>
            </g>
        </g>
    </g>
</svg>