<?xml version="1.0" encoding="UTF-8"?>
<svg width="20px" height="20px" viewBox="0 0 20 20" version="1.1" xmlns="http://www.w3.org/2000/svg" xmlns:xlink="http://www.w3.org/1999/xlink">
    <!-- Generator: Sketch 57.1 (83088) - https://sketch.com -->
    <title>Shape</title>
    <desc>Created with Sketch.</desc>
    <g id="QUALIFIED-CARRIERS--WEB-" stroke="none" stroke-width="1" fill="none" fill-rule="evenodd">
        <g id="MY-CARRIER-LIST" transform="translate(-24.000000, -337.000000)" fill="#FFFFFF" fill-rule="nonzero">
            <g id="Group-18" transform="translate(5.000000, 337.000000)">
                <g id="Group-10" transform="translate(3.000000, 0.000000)">
                    <path d="M17.1111111,11.1111111 L23.7777778,11.1111111 C24.3888889,11.1111111 24.8888889,10.6111111 24.8888889,10 L24.8888889,1.11111111 C24.8888889,0.5 24.3888889,0 23.7777778,0 L17.1111111,0 C16.5,0 16,0.5 16,1.11111111 L16,10 C16,10.6111111 16.5,11.1111111 17.1111111,11.1111111 Z M17.1111111,20 L23.7777778,20 C24.3888889,20 24.8888889,19.5 24.8888889,18.8888889 L24.8888889,14.4444444 C24.8888889,13.8333333 24.3888889,13.3333333 23.7777778,13.3333333 L17.1111111,13.3333333 C16.5,13.3333333 16,13.8333333 16,14.4444444 L16,18.8888889 C16,19.5 16.5,20 17.1111111,20 Z M28.2222222,20 L34.8888889,20 C35.5,20 36,19.5 36,18.8888889 L36,10 C36,9.38888889 35.5,8.88888889 34.8888889,8.88888889 L28.2222222,8.88888889 C27.6111111,8.88888889 27.1111111,9.38888889 27.1111111,10 L27.1111111,18.8888889 C27.1111111,19.5 27.6111111,20 28.2222222,20 Z M27.1111111,1.11111111 L27.1111111,5.55555556 C27.1111111,6.16666667 27.6111111,6.66666667 28.2222222,6.66666667 L34.8888889,6.66666667 C35.5,6.66666667 36,6.16666667 36,5.55555556 L36,1.11111111 C36,0.5 35.5,0 34.8888889,0 L28.2222222,0 C27.6111111,0 27.1111111,0.5 27.1111111,1.11111111 Z" id="Shape"></path>
                </g>
            </g>
        </g>
    </g>
</svg>