<?xml version="1.0" encoding="UTF-8"?>
<svg width="20px" height="20px" viewBox="0 0 20 20" version="1.1" xmlns="http://www.w3.org/2000/svg" xmlns:xlink="http://www.w3.org/1999/xlink">
    <!-- Generator: Sketch 57.1 (83088) - https://sketch.com -->
    <title>24px (8)</title>
    <desc>Created with Sketch.</desc>
    <g id="QUALIFIED-CARRIERS--WEB-" stroke="none" stroke-width="1" fill="none" fill-rule="evenodd">
        <g id="MY-CARRIER-LIST" transform="translate(-25.000000, -719.000000)" fill="#FFFFFF" fill-rule="nonzero">
            <g id="Group-18" transform="translate(5.000000, 337.000000)">
                <g id="24px-(8)" transform="translate(20.000000, 382.000000)">
                    <path d="M18,0 L2,0 C0.9,0 0.01,0.9 0.01,2 L0,20 L4,16 L18,16 C19.1,16 20,15.1 20,14 L20,2 C20,0.9 19.1,0 18,0 Z M16,12 L4,12 L4,10 L16,10 L16,12 Z M16,9 L4,9 L4,7 L16,7 L16,9 Z M16,6 L4,6 L4,4 L16,4 L16,6 Z" id="Shape"></path>
                </g>
            </g>
        </g>
    </g>
</svg>