<?xml version="1.0" encoding="UTF-8"?>
<svg width="19px" height="19px" viewBox="0 0 19 19" version="1.1" xmlns="http://www.w3.org/2000/svg" xmlns:xlink="http://www.w3.org/1999/xlink">
    <!-- Generator: Sketch 57.1 (83088) - https://sketch.com -->
    <title>Path</title>
    <desc>Created with Sketch.</desc>
    <g id="QUALIFIED-CARRIERS--WEB-" stroke="none" stroke-width="1" fill="none" fill-rule="evenodd">
        <g id="MY-CARRIER-LIST" transform="translate(-25.000000, -508.000000)" fill="#FFFFFF" fill-rule="nonzero">
            <g id="Group-18" transform="translate(5.000000, 337.000000)">
                <g id="Group-16" transform="translate(3.000000, 171.000000)">
                    <path d="M26.2592593,-4.97379915e-14 C31.3703704,-4.97379915e-14 35.5185185,4.14814815 35.5185185,9.25925926 C35.5185185,14.3703704 31.3703704,18.5185185 26.2592593,18.5185185 C21.1481481,18.5185185 17,14.3703704 17,9.25925926 C17,4.14814815 21.1481481,-4.97379915e-14 26.2592593,-4.97379915e-14 Z M22.5555556,9.72222222 C21.2777778,9.72222222 20.2407407,10.7592593 20.2407407,12.037037 C20.2407407,13.3148148 21.2777778,14.3518519 22.5555556,14.3518519 C23.8333333,14.3518519 24.8703704,13.3148148 24.8703704,12.037037 C24.8703704,10.7592593 23.8333333,9.72222222 22.5555556,9.72222222 Z M29.962963,9.72222222 C28.6851852,9.72222222 27.6481481,10.7592593 27.6481481,12.037037 C27.6481481,13.3148148 28.6851852,14.3518519 29.962963,14.3518519 C31.2407407,14.3518519 32.2777778,13.3148148 32.2777778,12.037037 C32.2777778,10.7592593 31.2407407,9.72222222 29.962963,9.72222222 Z M26.2592593,3.24074074 C24.9814815,3.24074074 23.9444444,4.27777778 23.9444444,5.55555556 C23.9444444,6.83333333 24.9814815,7.87037037 26.2592593,7.87037037 C27.537037,7.87037037 28.5740741,6.83333333 28.5740741,5.55555556 C28.5740741,4.27777778 27.537037,3.24074074 26.2592593,3.24074074 Z" id="Combined-Shape"></path>
                </g>
            </g>
        </g>
    </g>
</svg>