<?xml version="1.0" encoding="UTF-8"?>
<svg width="18px" height="18px" viewBox="0 0 18 18" version="1.1" xmlns="http://www.w3.org/2000/svg" xmlns:xlink="http://www.w3.org/1999/xlink">
    <!-- Generator: Sketch 57.1 (83088) - https://sketch.com -->
    <title>Shape</title>
    <desc>Created with Sketch.</desc>
    <g id="QUALIFIED-CARRIERS--WEB-" stroke="none" stroke-width="1" fill="none" fill-rule="evenodd">
        <g id="MY-CARRIER-LIST" transform="translate(-1188.000000, -77.000000)" fill="#1E22AA" fill-rule="nonzero">
            <path d="M1197,77 C1192.032,77 1188,81.032 1188,86 C1188,90.968 1192.032,95 1197,95 C1201.968,95 1206,90.968 1206,86 C1206,81.032 1201.968,77 1197,77 Z M1197,93 C1193.14125,93 1190,89.85875 1190,86 C1190,82.14125 1193.14125,79 1197,79 C1200.85875,79 1204,82.14125 1204,86 C1204,89.85875 1200.85875,93 1197,93 Z M1196,90 L1198,90 L1198,92 L1196,92 L1196,90 Z M1194.03625,83.5179478 C1193.87588,84.0332785 1194.2679,84.5574942 1194.81138,84.5574942 L1194.98956,84.5574942 C1195.35485,84.5574942 1195.64886,84.2998288 1195.77359,83.9621984 C1196.0587,83.1714323 1196.90509,82.6294466 1197.82276,82.8249169 C1198.66916,83.0026171 1199.29282,83.8289232 1199.22155,84.6907693 C1199.13245,85.8813609 1197.77822,86.1390262 1197.03873,87.2496527 C1197.03873,87.2585377 1197.02982,87.2585377 1197.02982,87.2674227 C1197.02092,87.2851927 1197.01201,87.2940778 1197.0031,87.3118478 C1196.92291,87.445123 1196.84273,87.5961682 1196.78036,87.7560984 C1196.77145,87.7827534 1196.75363,87.8005234 1196.74472,87.8271785 C1196.73581,87.8449485 1196.73581,87.8627185 1196.7269,87.8893735 C1196.61999,88.1914639 1196.54872,88.5557494 1196.54872,89 L1198.3306,89 C1198.3306,88.6268295 1198.42861,88.3158541 1198.58007,88.0493037 C1198.59789,88.0226487 1198.6068,87.9959937 1198.62461,87.9693386 C1198.69589,87.8449485 1198.78498,87.7294433 1198.87408,87.6228232 C1198.88299,87.6139382 1198.8919,87.5961682 1198.90081,87.5872831 C1198.9899,87.480663 1199.0879,87.3829279 1199.19482,87.2851927 C1200.05012,86.4766567 1201.20835,85.8191658 1200.9678,84.1221286 C1200.75397,82.5761365 1199.53338,81.2700398 1197.98313,81.0390295 C1196.14779,80.7724792 1194.52627,81.9008757 1194.03625,83.5179478 Z" id="Shape"></path>
        </g>
    </g>
</svg>