<?xml version="1.0" encoding="UTF-8"?>
<svg width="20px" height="20px" viewBox="0 0 20 20" version="1.1" xmlns="http://www.w3.org/2000/svg" xmlns:xlink="http://www.w3.org/1999/xlink">
    <!-- Generator: Sketch 57.1 (83088) - https://sketch.com -->
    <title>24px (9)</title>
    <desc>Created with Sketch.</desc>
    <g id="QUALIFIED-CARRIERS--WEB-" stroke="none" stroke-width="1" fill="none" fill-rule="evenodd">
        <g id="MY-CARRIER-LIST" transform="translate(-25.000000, -772.000000)" fill="#FFFFFF" fill-rule="nonzero">
            <g id="Group-18" transform="translate(5.000000, 337.000000)">
                <g id="24px-(9)" transform="translate(20.000000, 435.000000)">
                    <path d="M18,0 L2,0 C0.9,0 0.01,0.9 0.01,2 L0,20 L4,16 L18,16 C19.1,16 20,15.1 20,14 L20,2 C20,0.9 19.1,0 18,0 Z M7,9 L5,9 L5,7 L7,7 L7,9 Z M11,9 L9,9 L9,7 L11,7 L11,9 Z M15,9 L13,9 L13,7 L15,7 L15,9 Z" id="Shape"></path>
                </g>
            </g>
        </g>
    </g>
</svg>