<?xml version="1.0" encoding="UTF-8"?>
<svg width="20px" height="20px" viewBox="0 0 20 20" version="1.1" xmlns="http://www.w3.org/2000/svg" xmlns:xlink="http://www.w3.org/1999/xlink">
    <!-- Generator: Sketch 57.1 (83088) - https://sketch.com -->
    <title>24px (16)</title>
    <desc>Created with Sketch.</desc>
    <g id="QUALIFIED-CARRIERS--WEB-" stroke="none" stroke-width="1" fill="none" fill-rule="evenodd">
        <g id="MY-CARRIER-LIST" transform="translate(-25.000000, -447.000000)" fill="#FFFFFF" fill-rule="nonzero">
            <g id="Group-18" transform="translate(5.000000, 337.000000)">
                <g id="24px-(16)" transform="translate(20.000000, 110.000000)">
                    <path d="M1.17647059,12.8571429 L3.52941176,12.8571429 C4.17647059,12.8571429 4.70588235,12.2142857 4.70588235,11.4285714 L4.70588235,8.57142857 C4.70588235,7.78571429 4.17647059,7.14285714 3.52941176,7.14285714 L1.17647059,7.14285714 C0.529411765,7.14285714 0,7.78571429 0,8.57142857 L0,11.4285714 C0,12.2142857 0.529411765,12.8571429 1.17647059,12.8571429 Z M1.17647059,20 L3.52941176,20 C4.17647059,20 4.70588235,19.3571429 4.70588235,18.5714286 L4.70588235,15.7142857 C4.70588235,14.9285714 4.17647059,14.2857143 3.52941176,14.2857143 L1.17647059,14.2857143 C0.529411765,14.2857143 0,14.9285714 0,15.7142857 L0,18.5714286 C0,19.3571429 0.529411765,20 1.17647059,20 Z M1.17647059,5.71428571 L3.52941176,5.71428571 C4.17647059,5.71428571 4.70588235,5.07142857 4.70588235,4.28571429 L4.70588235,1.42857143 C4.70588235,0.642857143 4.17647059,0 3.52941176,0 L1.17647059,0 C0.529411765,0 0,0.642857143 0,1.42857143 L0,4.28571429 C0,5.07142857 0.529411765,5.71428571 1.17647059,5.71428571 Z M7.05882353,12.8571429 L18.8235294,12.8571429 C19.4705882,12.8571429 20,12.2142857 20,11.4285714 L20,8.57142857 C20,7.78571429 19.4705882,7.14285714 18.8235294,7.14285714 L7.05882353,7.14285714 C6.41176471,7.14285714 5.88235294,7.78571429 5.88235294,8.57142857 L5.88235294,11.4285714 C5.88235294,12.2142857 6.41176471,12.8571429 7.05882353,12.8571429 Z M7.05882353,20 L18.8235294,20 C19.4705882,20 20,19.3571429 20,18.5714286 L20,15.7142857 C20,14.9285714 19.4705882,14.2857143 18.8235294,14.2857143 L7.05882353,14.2857143 C6.41176471,14.2857143 5.88235294,14.9285714 5.88235294,15.7142857 L5.88235294,18.5714286 C5.88235294,19.3571429 6.41176471,20 7.05882353,20 Z M5.88235294,1.42857143 L5.88235294,4.28571429 C5.88235294,5.07142857 6.41176471,5.71428571 7.05882353,5.71428571 L18.8235294,5.71428571 C19.4705882,5.71428571 20,5.07142857 20,4.28571429 L20,1.42857143 C20,0.642857143 19.4705882,0 18.8235294,0 L7.05882353,0 C6.41176471,0 5.88235294,0.642857143 5.88235294,1.42857143 Z" id="Shape"></path>
                </g>
            </g>
        </g>
    </g>
</svg>