<?xml version="1.0" encoding="UTF-8"?>
<svg width="20px" height="20px" viewBox="0 0 20 20" version="1.1" xmlns="http://www.w3.org/2000/svg" xmlns:xlink="http://www.w3.org/1999/xlink">
    <!-- Generator: Sketch 57.1 (83088) - https://sketch.com -->
    <title>24px (18)</title>
    <desc>Created with Sketch.</desc>
    <g id="QUALIFIED-CARRIERS--WEB-" stroke="none" stroke-width="1" fill="none" fill-rule="evenodd">
        <g id="MY-CARRIER-LIST" transform="translate(-23.000000, -560.000000)" fill="#FFFFFF" fill-rule="nonzero">
            <g id="Group-18" transform="translate(5.000000, 337.000000)">
                <g id="Group-17" transform="translate(6.000000, 223.000000)">
                    <g id="24px-(18)" transform="translate(12.000000, 0.000000)">
                        <path d="M10,4.44444444 L10,2.22222222 C10,1 9.1,0 8,0 L2,0 C0.9,0 0,1 0,2.22222222 L0,17.7777778 C0,19 0.9,20 2,20 L18,20 C19.1,20 20,19 20,17.7777778 L20,6.66666667 C20,5.44444444 19.1,4.44444444 18,4.44444444 L10,4.44444444 Z M4,17.7777778 L2,17.7777778 L2,15.5555556 L4,15.5555556 L4,17.7777778 Z M4,13.3333333 L2,13.3333333 L2,11.1111111 L4,11.1111111 L4,13.3333333 Z M4,8.88888889 L2,8.88888889 L2,6.66666667 L4,6.66666667 L4,8.88888889 Z M4,4.44444444 L2,4.44444444 L2,2.22222222 L4,2.22222222 L4,4.44444444 Z M8,17.7777778 L6,17.7777778 L6,15.5555556 L8,15.5555556 L8,17.7777778 Z M8,13.3333333 L6,13.3333333 L6,11.1111111 L8,11.1111111 L8,13.3333333 Z M8,8.88888889 L6,8.88888889 L6,6.66666667 L8,6.66666667 L8,8.88888889 Z M8,4.44444444 L6,4.44444444 L6,2.22222222 L8,2.22222222 L8,4.44444444 Z M17,17.7777778 L10,17.7777778 L10,15.5555556 L12,15.5555556 L12,13.3333333 L10,13.3333333 L10,11.1111111 L12,11.1111111 L12,8.88888889 L10,8.88888889 L10,6.66666667 L17,6.66666667 C17.55,6.66666667 18,7.16666667 18,7.77777778 L18,16.6666667 C18,17.2777778 17.55,17.7777778 17,17.7777778 Z M16,8.88888889 L14,8.88888889 L14,11.1111111 L16,11.1111111 L16,8.88888889 Z M16,13.3333333 L14,13.3333333 L14,15.5555556 L16,15.5555556 L16,13.3333333 Z" id="Shape"></path>
                    </g>
                </g>
            </g>
        </g>
    </g>
</svg>