<?xml version="1.0" encoding="UTF-8"?>
<svg width="20px" height="20px" viewBox="0 0 20 20" version="1.1" xmlns="http://www.w3.org/2000/svg" xmlns:xlink="http://www.w3.org/1999/xlink">
    <!-- Generator: Sketch 57.1 (83088) - https://sketch.com -->
    <title>Shape</title>
    <desc>Created with Sketch.</desc>
    <g id="QUALIFIED-CARRIERS--WEB-" stroke="none" stroke-width="1" fill="none" fill-rule="evenodd">
        <g id="MY-CARRIER-LIST" transform="translate(-25.000000, -386.000000)" fill="#FFFFFF" fill-rule="nonzero">
            <g id="Group-18" transform="translate(5.000000, 337.000000)">
                <g id="Group-15" transform="translate(11.000000, 49.000000)">
                    <path d="M18.0753008,1.02236819 L18.0753008,18.9776318 C18.0753008,19.6290699 17.4803644,20.1176485 16.8551771,19.9751465 C12.3477776,18.9572744 9,14.8756073 9,10 C9,5.1243927 12.3477776,1.04272564 16.8551771,0.02485355 C17.4803644,-0.117648542 18.0753008,0.370930059 18.0753008,1.02236819 Z M20.1222854,1.02236819 L20.1222854,7.95407711 C20.1222854,8.51390675 20.5760504,8.97194919 21.1306521,8.97194919 L27.9774624,8.97194919 C28.6228171,8.97194919 29.1068332,8.37140466 28.9656618,7.73014525 C28.1085501,3.9029462 25.1338682,0.890044824 21.3524928,0.02485355 C20.7172217,-0.117648542 20.1222854,0.370930059 20.1222854,1.02236819 Z M20.1222854,12.0459229 L20.1222854,18.9776318 C20.1222854,19.6290699 20.7172217,20.1176485 21.3524928,19.9751465 C25.1439518,19.1099552 28.1186338,16.0868751 28.9757455,12.259676 C29.1169169,11.6285953 28.6228171,11.0178721 27.9875461,11.0178721 L21.1407358,11.0178721 C20.5760504,11.0280508 20.1222854,11.4860932 20.1222854,12.0459229 Z" id="Shape"></path>
                </g>
            </g>
        </g>
    </g>
</svg>